{
.appVersion = "1300";
classes = (
{
code = "dotabove-ar dotbelow-ar twodotshorizontalabove-ar twodotshorizontalbelow-ar threedotsupabove-ar";
name = Dots;
},
{
code = "dotabove-ar.alt1 dotbelow-ar.alt1 twodotshorizontalabove-ar.alt1 twodotshorizontalbelow-ar.alt1 threedotsupabove-ar.alt1";
name = Dots.alt1;
},
{
code = "dotbelow-ar dotbelow-ar.alt1 twodotshorizontalbelow-ar twodotshorizontalbelow-ar.alt1";
name = DotsBelow;
}
);
copyright = "Copyright © 2020 by Khaled Hosny. All rights reserved.";
customParameters = (
{
name = license;
value = "This program is free software: you can redistribute it and/or modify it under the terms of the GNU Affero General Public License as published by the Free Software Foundation, either version 3 of the License, or (at your option) any later version.\012\012This program is distributed in the hope that it will be useful, but WITHOUT ANY WARRANTY; without even the implied warranty of MERCHANTABILITY or FITNESS FOR A PARTICULAR PURPOSE.  See the GNU Affero General Public License for more details.\012\012You should have received a copy of the GNU Affero General Public License along with this program.  If not, see <https://www.gnu.org/licenses/>";
},
{
name = licenseURL;
value = "https://www.gnu.org/licenses/agpl-3.0.html";
},
{
name = "Use Line Breaks";
value = 1;
},
{
name = "Disable Last Change";
value = 1;
},
{
name = "Don't use Production Names";
value = 1;
}
);
date = "2020-03-12 02:20:50 +0000";
designer = "Khaled Hosny";
designerURL = "https://github.com/alif-type";
familyName = Qahiri;
featurePrefixes = (
{
automatic = 1;
code = "languagesystem DFLT dflt;
";
name = Languagesystems;
},
{
code = "lookup AboveHah {
  sub behDotless-ar.init by behDotless-ar.init.hah;
  sub lam-ar.init by lam-ar.init.hah;
  sub hah-ar.medi by hah-ar.init;
  sub hah-ar.fina by hah-ar.3;
} AboveHah;

lookup lellah {
  sub lam-ar.init by lam-ar.init.lellah;
  sub lam-ar.medi by lam-ar.medi.lellah;
} lellah;

lookup ToothYeh {

glyphs = (
{
glyphname = "hamza-ar";
layers = (
{
layerId = "67aa4fb0-543e-4232-8202-ade6a11e0795";
paths = (
{
closed = 1;
nodes = (
"226 0 LINE",
"256 50 LINE",
"165 50 LINE SMOOTH",
"150 50 OFFCURVE",
"141 62 OFFCURVE",
"141 76 CURVE SMOOTH",
"141 91 OFFCURVE",
"153 107 OFFCURVE",
"179 107 CURVE SMOOTH",
"189 107 OFFCURVE",
"200 105 OFFCURVE",
"213 100 CURVE",
"203 132 OFFCURVE",
"178 150 OFFCURVE",
"153 150 CURVE SMOOTH",
"69 150 OFFCURVE",
"59 19 OFFCURVE",
"141 0 CURVE"
);
},
{
closed = 1;
nodes = (
"69 50 LINE",
"40 0 LINE",
"157 0 LINE",
"186 50 LINE"
);
}
);
width = 296;
}
);
unicode = 0621;
},
{
glyphname = "alef-ar";
layers = (
{
anchors = (
{
name = bottom;
position = "{70, -20}";
},
{
name = top;
position = "{173, 474}";
}
);
layerId = "67aa4fb0-543e-4232-8202-ade6a11e0795";
paths = (
{
closed = 1;
nodes = (
"80 560 LINE",
"0 540 LINE",
"0 140 LINE",
"0 44.849 OFFCURVE",
"75.822 0.245 OFFCURVE",
"157.661 0.245 CURVE SMOOTH",
"217.736 0.245 OFFCURVE",
"281.054 24.281 OFFCURVE",
"320 70 CURVE",
"292.196 58.314 OFFCURVE",
"247.829 48.414 OFFCURVE",
"204.762 48.414 CURVE SMOOTH",
"140.954 48.414 OFFCURVE",
"80 70.146 OFFCURVE",
"80 140 CURVE"
);
}
);
width = 360;
}
);
unicode = 0627;
},
{
glyphname = "alef-ar.1";
layers = (
{
anchors = (
{
name = bottom;
position = "{70, -20}";
},
{
name = top;
position = "{143, 474}";
}
);
layerId = "67aa4fb0-543e-4232-8202-ade6a11e0795";
paths = (
{
closed = 1;
nodes = (
"80 560 LINE",
"0 540 LINE",
"0 80 LINE",
"0 29.996 OFFCURVE",
"36.512 0.277 OFFCURVE",
"77.298 0.277 CURVE SMOOTH",
"106.659 0.277 OFFCURVE",
"138.235 15.678 OFFCURVE",
"160 50 CURVE",
"150.544 45.761 OFFCURVE",
"138.749 43.33 OFFCURVE",
"127.146 43.33 CURVE SMOOTH",
"103.164 43.33 OFFCURVE",
"80 53.717 OFFCURVE",
"80 80 CURVE"
);
}
);
width = 200;
}
);
},
{
glyphname = "alef-ar.2";
layers = (
{
anchors = (
{
name = bottom;
position = "{70, -20}";
},
{
name = top;
position = "{163, 474}";
}
);
layerId = "67aa4fb0-543e-4232-8202-ade6a11e0795";
paths = (
{
closed = 1;
nodes = (
"80 560 LINE",
"0 540 LINE",
"0 100 LINE",
"0 34.354 OFFCURVE",
"51.765 0.186 OFFCURVE",
"113.096 0.186 CURVE SMOOTH",
"155.47 0.186 OFFCURVE",
"202.409 16.495 OFFCURVE",
"240 50 CURVE",
"216.041 42.014 OFFCURVE",
"189.428 37.162 OFFCURVE",
"164.895 37.162 CURVE SMOOTH",
"118.775 37.162 OFFCURVE",
"80 54.307 OFFCURVE",
"80 100 CURVE"
);
}
);
width = 280;
}
);
},
{
glyphname = "alef-ar.3";
layers = (
{
anchors = (
{
name = bottom;
position = "{62, -20}";
},
{
name = top;
position = "{82, 574}";
}
);
layerId = "67aa4fb0-543e-4232-8202-ade6a11e0795";
paths = (
{
closed = 1;
nodes = (
"10 10 OFFCURVE",
"30 0 OFFCURVE",
"52 0 CURVE SMOOTH",
"90 0 OFFCURVE",
"120 30 OFFCURVE",
"120 80 CURVE SMOOTH",
"120 560 LINE",
"40 540 LINE",
"40 70 LINE SMOOTH",
"40 40 OFFCURVE",
"27 20 OFFCURVE",
"0 20 CURVE"
);
}
);
width = 120;
}
);
},
{
glyphname = "alef-ar.fina";
layers = (
{
anchors = (
{
name = bottom;
position = "{44, -20}";
},
{
name = exit;
position = "{0, 0}";
},
{
name = top;
position = "{40, 569}";
}
);
layerId = "67aa4fb0-543e-4232-8202-ade6a11e0795";
paths = (
{
closed = 1;
nodes = (
"80 560 LINE",
"0 540 LINE",
"0 40 LINE",
"0 15 OFFCURVE",
"15 0 OFFCURVE",
"38 0 CURVE",
"120 0 LINE",
"120 70 LINE",
"90 70 LINE",
"83 70 OFFCURVE",
"80 73 OFFCURVE",
"80 80 CURVE"
);
}
);
width = 120;
}
);
},
{
glyphname = "behDotless-ar";
layers = (
{
anchors = (
{
name = bottom;
position = "{280, -35}";
},
{
name = top;
position = "{280, 200}";
}
);
components = (
{
alignment = -1;
name = _tail;
},
{
name = "behDotless-ar.init";
transform = "{1, 0, 0, 1, 480, 0}";
}
);
layerId = "67aa4fb0-543e-4232-8202-ade6a11e0795";
paths = (
{
closed = 1;
nodes = (
"470 0 LINE",
"470 70 LINE",
"320 70 LINE",
"320 0 LINE"
);
}
);
width = 600;
}
);
rightKerningGroup = dal;
unicode = 066E;
},
{
glyphname = "behDotless-ar.fina.1";
layers = (
{
anchors = (
{
name = bottom;
position = "{280, -35}";
},
{
name = top;
position = "{280, 200}";
}
);
components = (
{
name = _tail;
}
);
layerId = "67aa4fb0-543e-4232-8202-ade6a11e0795";
paths = (
{
closed = 1;
nodes = (
"600 0 LINE",
"600 70 LINE",
"320 70 LINE",
"320 0 LINE"
);
},
{
closed = 1;
nodes = (
"577 4 LINE",
"502 210 LINE",
"434 164 LINE",
"481 34 LINE",
"517 70 LINE",
"451 70 LINE",
"451 0 LINE"
);
}
);
width = 600;
}
);
widthMetricsKey = "=behDotless-ar";
rightKerningGroup = dal;
},
{
glyphname = "behDotless-ar.medi.1";
layers = (
{
anchors = (
{
name = top;
position = "{36, 215}";
}
);
layerId = "67aa4fb0-543e-4232-8202-ade6a11e0795";
paths = (
{
closed = 1;
nodes = (
"140.4 40 LINE",
"40.414 140.038 LINE",
"-17.3 40 LINE"
);
},
{
closed = 1;
nodes = (
"150 0 LINE",
"150 70 LINE",
"-20 70 LINE",
"-20 0 LINE"
);
}
);
width = 150;
}
);
leftKerningGroup = pyramid;
rightKerningGroup = pyramid;
},
{
glyphname = "behDotless-ar.medi.yeh";
layers = (
{
anchors = (
{
name = bottom;
position = "{44, -35}";
},
{
name = exit;
position = "{0, 0}";
},
{
name = top;
position = "{44, 300}";
}
);
layerId = "67aa4fb0-543e-4232-8202-ade6a11e0795";
paths = (
{
closed = 1;
nodes = (
"80 230 LINE",
"0 210 LINE",
"0 0 LINE",
"120 0 LINE",
"120 70 LINE",
"90 70 LINE",
"83 70 OFFCURVE",
"80 73 OFFCURVE",
"80 80 CURVE"
);
}
);
width = 120;
}
);
widthMetricsKey = "=behDotless-ar.init";
},
{
glyphname = "behDotless-ar.init";
layers = (
{
anchors = (
{
name = bottom;
position = "{44, -35}";
},
{
name = top;
position = "{44, 300}";
}
);
layerId = "67aa4fb0-543e-4232-8202-ade6a11e0795";
paths = (
{
closed = 1;
nodes = (
"59 0 LINE",
"65 0 OFFCURVE",
"80 0 OFFCURVE",
"80 11 CURVE",
"80 230 LINE",
"0 210 LINE",
"0 70 LINE",
"-20 70 LINE",
"-20 0 LINE"
);
}
);
width = 120;
}
);
},
{
glyphname = "behDotless-ar.init.hah";
layers = (
{
anchors = (
{
name = bottom;
position = "{100, -145}";
},
{
name = exit;
position = "{-19, -2}";
},
{
name = top;
position = "{30, 235}";
}
);
layerId = "67aa4fb0-543e-4232-8202-ade6a11e0795";
paths = (
{
closed = 1;
nodes = (
"36.774 0 OFFCURVE",
"80 30.109 OFFCURVE",
"80 70 CURVE SMOOTH",
"80 160 LINE",
"0 140 LINE",
"0 70 LINE SMOOTH",
"0 51.331 OFFCURVE",
"-0.2 25.365 OFFCURVE",
"-20 24.696 CURVE",
"-20 0 LINE"
);
}
);
width = 80;
}
);
},
{
glyphname = "hah-ar.1";
layers = (
{
components = (
{
name = "hah-ar";
}
);
layerId = "67aa4fb0-543e-4232-8202-ade6a11e0795";
paths = (
{
closed = 1;
nodes = (
"515 -110 LINE",
"556 -40 LINE",
"486 -40 LINE",
"486 -110 LINE"
);
},
{
closed = 1;
nodes = (
"579 0 LINE",
"620 70 LINE",
"550 70 LINE",
"550 0 LINE"
);
}
);
width = 660;
}
);
},
{
glyphname = "hah-ar.2";
layers = (
{
components = (
{
name = "hah-ar";
}
);
layerId = "67aa4fb0-543e-4232-8202-ade6a11e0795";
paths = (
{
closed = 1;
nodes = (
"535 -110 LINE",
"576 -40 LINE",
"476 -40 LINE",
"476 -110 LINE"
);
},
{
closed = 1;
nodes = (
"599 0 LINE",
"640 70 LINE",
"550 70 LINE",
"550 0 LINE"
);
}
);
width = 680;
}
);
},
{
glyphname = "hah-ar.3";
layers = (
{
anchors = (
{
name = bottom;
position = "{260, -70}";
},
{
name = entry;
position = "{180, 110}";
},
{
name = top;
position = "{359, 163}";
}
);
components = (
{
name = _tail3;
}
);
layerId = "67aa4fb0-543e-4232-8202-ade6a11e0795";
paths = (
{
closed = 1;
nodes = (
"313 50 LINE",
"313 70 LINE",
"255.248 70 OFFCURVE",
"193.552 135.117 OFFCURVE",
"132.749 209.841 CURVE",
"90 140 LINE",
"108.911 111.75 OFFCURVE",
"137 83 OFFCURVE",
"152 70 CURVE",
"152 50 LINE"
);
},
{
closed = 1;
nodes = (
"409 0 LINE",
"450 70 LINE",
"152 70 LINE",
"152 0 LINE"
);
}
);
width = 490;
}
);
},
{
glyphname = "hah-ar.4";
layers = (
{
anchors = (
{
name = bottom;
position = "{320, -145}";
}
);
components = (
{
name = "hah-ar.init";
transform = "{1, 0, 0, 1, 207, 0}";
},
{
name = "alefMaksura-ar.fina.2";
}
);
layerId = "67aa4fb0-543e-4232-8202-ade6a11e0795";
paths = (
{
closed = 1;
nodes = (
"462 -110 LINE",
"503 -40 LINE",
"373 -40 LINE",
"373 -110 LINE"
);
}
);
width = 607;
}
);
},
{
glyphname = "hah-ar.5";
layers = (
{
anchors = (
{
name = bottom;
position = "{320, -145}";
}
);
components = (
{
name = "hah-ar.init";
transform = "{1, 0, 0, 1, 207, 0}";
},
{
name = "alefMaksura-ar.fina.2";
}
);
layerId = "67aa4fb0-543e-4232-8202-ade6a11e0795";
paths = (
{
closed = 1;
nodes = (
"482 -110 LINE",
"523 -40 LINE",
"373 -40 LINE",
"373 -110 LINE"
);
},
{
closed = 1;
nodes = (
"546 0 LINE",
"587 70 LINE",
"517 70 LINE",
"517 0 LINE"
);
}
);
width = 627;
}
);
},
{
glyphname = "hah-ar.fina";
layers = (
{
anchors = (
{
name = bottom;
position = "{186, -65}";
},
{
name = top;
position = "{236, 305}";
}
);
components = (
{
name = _tail3;
}
);
layerId = "67aa4fb0-543e-4232-8202-ade6a11e0795";
paths = (
{
closed = 1;
nodes = (
"371 -103 LINE",
"179 230 LINE",
"120 173 LINE",
"312 -160 LINE"
);
},
{
closed = 1;
nodes = (
"371 0 LINE",
"371 70 LINE",
"150 70 LINE",
"150 0 LINE"
);
}
);
width = 371;
}
);
},
{
glyphname = "hah-ar.medi";
layers = (
{
anchors = (
{
name = bottom;
position = "{66, -85}";
},
{
name = top;
position = "{116, 305}";
}
);
components = (
{
name = "kashida-ar";
}
);
layerId = "67aa4fb0-543e-4232-8202-ade6a11e0795";
paths = (
{
closed = 1;
nodes = (
"250.878 -102.526 LINE",
"59.282 230 LINE",
"0 172.679 LINE",
"191.596 -159.846 LINE"
);
},
{
closed = 1;
nodes = (
"251.237 0 LINE",
"251.237 70 LINE",
"30.237 70 LINE",
"30.237 0 LINE"
);
}
);
width = 191;
}
);
leftKerningGroup = waw;
},
{
glyphname = "hah-ar.init";
layers = (
{
associatedMasterId = "67aa4fb0-543e-4232-8202-ade6a11e0795";
layerId = "6b2944f6-386a-4df7-bde1-fdc02766a452";
name = Background;
paths = (
{
closed = 1;
nodes = (
"70 70 LINE",
"0 140 LINE",
"42.749 209.841 LINE",
"182.958 70 LINE"
);
}
);
width = 400;
},
{
anchors = (
{
name = bottom;
position = "{170, -35}";
},
{
name = entry;
position = "{90, 110}";
},
{
name = top;
position = "{269, 163}";
}
);
layerId = "67aa4fb0-543e-4232-8202-ade6a11e0795";
paths = (
{
closed = 1;
nodes = (
"223 50 LINE",
"223 70 LINE",
"165.248 70 OFFCURVE",
"103.552 135.117 OFFCURVE",
"42.749 209.841 CURVE",
"0 140 LINE",
"18.911 111.75 OFFCURVE",
"46.601 83.162 OFFCURVE",
"62.066 70 CURVE",
"62.066 50 LINE"
);
},
{
closed = 1;
nodes = (
"319 0 LINE",
"360 70 LINE",
"-20 70 LINE",
"-20 0 LINE"
);
}
);
width = 400;
}
);
leftKerningGroup = "hah-ar.init";
rightKerningGroup = "meem-ar.medi";
},
{
glyphname = "hah-ar.init.1";
layers = (
{
associatedMasterId = "67aa4fb0-543e-4232-8202-ade6a11e0795";
components = (
{
alignment = -1;
name = "hah-ar.init";
}
);
layerId = "6b2944f6-386a-4df7-bde1-fdc02766a452";
name = Background;
width = 400;
},
{
components = (
{
alignment = -1;
name = "hah-ar.init";
}
);
layerId = "67aa4fb0-543e-4232-8202-ade6a11e0795";
paths = (
{
closed = 1;
nodes = (
"339 0 LINE",
"380 70 LINE",
"310 70 LINE",
"310 0 LINE"
);
}
);
width = 420;
}
);
},
{
glyphname = "hah-ar.init.2";
layers = (
{
components = (
{
alignment = -1;
name = "hah-ar.init";
}
);
layerId = "67aa4fb0-543e-4232-8202-ade6a11e0795";
paths = (
{
closed = 1;
nodes = (
"359 0 LINE",
"400 70 LINE",
"300 70 LINE",
"300 0 LINE"
);
}
);
width = 440;
}
);
},
{
glyphname = "dal-ar";
layers = (
{
components = (
{
name = _dal;
}
);
layerId = "67aa4fb0-543e-4232-8202-ade6a11e0795";
paths = (
{
closed = 1;
nodes = (
"146 180 LINE",
"120 180 LINE",
"147 250 LINE",
"144.4 250 LINE",
"63.5 110 LINE",
"146 110 LINE"
);
}
);
width = 600;
}
);
rightKerningGroup = dal;
unicode = 062F;
},
{
glyphname = "dal-ar.fina";
layers = (
{
components = (
{
alignment = -1;
name = "dal-ar";
}
);
layerId = "67aa4fb0-543e-4232-8202-ade6a11e0795";
paths = (
{
closed = 1;
nodes = (
"600.237 0 LINE",
"600.237 70 LINE",
"499.237 70 LINE",
"499.237 0 LINE"
);
}
);
width = 600;
}
);
leftKerningGroup = waw;
widthMetricsKey = "=dal-ar";
rightKerningGroup = dal;
},
{
glyphname = "reh-ar";
layers = (
{
anchors = (
{
name = top;
position = "{117, 215}";
}
);
layerId = "67aa4fb0-543e-4232-8202-ade6a11e0795";
paths = (
{
closed = 1;
nodes = (
"276 -110 LINE SMOOTH",
"282 -110 OFFCURVE",
"297 -110 OFFCURVE",
"297 -89 CURVE",
"297 50 OFFCURVE",
"228.195 92.87 OFFCURVE",
"81.4 140 CURVE",
"0.5 0 LINE",
"173 0 LINE SMOOTH",
"195 0 OFFCURVE",
"213 -18 OFFCURVE",
"213 -40 CURVE",
"-22.6 -40 LINE",
"-63 -110 LINE"
);
}
);
width = 312;
}
);
unicode = 0631;
},
{
glyphname = "reh-ar.1";
layers = (
{
anchors = (
{
name = top;
position = "{117, 180}";
}
);
layerId = "67aa4fb0-543e-4232-8202-ade6a11e0795";
paths = (
{
closed = 1;
nodes = (
"276 -110 LINE SMOOTH",
"282 -110 OFFCURVE",
"297 -110 OFFCURVE",
"297 -89 CURVE",
"297 50 OFFCURVE",
"228.998 96.339 OFFCURVE",
"61 105 CURVE",
"0.5 0 LINE",
"173 0 LINE SMOOTH",
"195 0 OFFCURVE",
"213 -18 OFFCURVE",
"213 -40 CURVE",
"-22.6 -40 LINE",
"-63 -110 LINE"
);
}
);
width = 312;
}
);
},
{
glyphname = "reh-ar.fina";
layers = (
{
components = (
{
alignment = -1;
name = "reh-ar";
}
);
layerId = "67aa4fb0-543e-4232-8202-ade6a11e0795";
paths = (
{
closed = 1;
nodes = (
"283 0 LINE",
"283 70 LINE",
"193 70 LINE",
"193 0 LINE"
);
}
);
width = 283;
}
);
leftKerningGroup = reh.fina;
},
{
glyphname = "reh-ar.fina.1";
layers = (
{
components = (
{
alignment = -1;
name = "reh-ar.1";
}
);
layerId = "67aa4fb0-543e-4232-8202-ade6a11e0795";
paths = (
{
closed = 1;
nodes = (
"283 0 LINE",
"283 70 LINE",
"193 70 LINE",
"193 0 LINE"
);
}
);
width = 283;
}
);
leftKerningGroup = reh.fina;
},
{
glyphname = "seen-ar.1";
layers = (
{
anchors = (
{
name = top;
position = "{233, 320}";
}
);
components = (
{
alignment = -1;
name = "seen-ar";
}
);
layerId = "67aa4fb0-543e-4232-8202-ade6a11e0795";
paths = (
{
closed = 1;
nodes = (
"390 200 LINE",
"390 250 LINE",
"310 230 LINE",
"310 180 LINE"
);
},
{
closed = 1;
nodes = (
"150 200 LINE",
"150 250 LINE",
"70 230 LINE",
"70 180 LINE"
);
},
{
closed = 1;
nodes = (
"270 200 LINE",
"270 250 LINE",
"190 230 LINE",
"190 180 LINE"
);
}
);
width = 430;
}
);
widthMetricsKey = "=seen-ar";
rightKerningGroup = bowel;
},
{
glyphname = "seen-ar.2";
layers = (
{
anchors = (
{
name = top;
position = "{233, 340}";
}
);
components = (
{
alignment = -1;
name = "seen-ar";
}
);
layerId = "67aa4fb0-543e-4232-8202-ade6a11e0795";
paths = (
{
closed = 1;
nodes = (
"390 220 LINE",
"390 270 LINE",
"310 250 LINE",
"310 200 LINE"
);
},
{
closed = 1;
nodes = (
"150 220 LINE",
"150 270 LINE",
"70 250 LINE",
"70 200 LINE"
);
},
{
closed = 1;
nodes = (
"270 220 LINE",
"270 270 LINE",
"190 250 LINE",
"190 200 LINE"
);
}
);
width = 430;
}
);
widthMetricsKey = "=seen-ar";
rightKerningGroup = bowel;
},
{
glyphname = "seen-ar.3";
layers = (
{
anchors = (
{
name = top;
position = "{233, 310}";
}
);
components = (
{
alignment = -1;
name = "behDotless-ar.medi";
transform = "{1, 0, 0, 1, 190, 0}";
},
{
alignment = -1;
name = "behDotless-ar.init";
transform = "{1, 0, 0, 1, 310, 0}";
},
{
name = _elbow;
transform = "{1, 0, 0, 1, 110, 0}";
},
{
name = _bowel;
transform = "{1, 0, 0, 1, -80, 0}";
}
);
layerId = "67aa4fb0-543e-4232-8202-ade6a11e0795";
paths = (
{
closed = 1;
nodes = (
"270 190 LINE",
"270 240 LINE",
"190 220 LINE",
"190 170 LINE"
);
},
{
closed = 1;
nodes = (
"390 220 LINE",
"390 270 LINE",
"310 250 LINE",
"310 200 LINE"
);
}
);
width = 430;
}
);
widthMetricsKey = "=seen-ar";
rightKerningGroup = bowel;
},
{
glyphname = "seen-ar.4";
layers = (
{
anchors = (
{
name = top;
position = "{233, 320}";
}
);
components = (
{
alignment = -1;
name = "seen-ar.3";
}
);
layerId = "67aa4fb0-543e-4232-8202-ade6a11e0795";
paths = (
{
closed = 1;
nodes = (
"390 240 LINE",
"390 290 LINE",
"310 270 LINE",
"310 220 LINE"
);
},
{
closed = 1;
nodes = (
"150 180 LINE",
"150 230 LINE",
"70 210 LINE",
"70 160 LINE"
);
},
{
closed = 1;
nodes = (
"270 210 LINE",
"270 260 LINE",
"190 240 LINE",
"190 190 LINE"
);
}
);
width = 430;
}
);
widthMetricsKey = "=seen-ar";
rightKerningGroup = bowel;
},
{
glyphname = "seen-ar.5";
layers = (
{
anchors = (
{
name = top;
position = "{233, 340}";
}
);
components = (
{
alignment = -1;
name = "seen-ar.3";
}
);
layerId = "67aa4fb0-543e-4232-8202-ade6a11e0795";
paths = (
{
closed = 1;
nodes = (
"390 260 LINE",
"390 310 LINE",
"310 290 LINE",
"310 240 LINE"
);
},
{
closed = 1;
nodes = (
"150 200 LINE",
"150 250 LINE",
"70 230 LINE",
"70 180 LINE"
);
},
{
closed = 1;
nodes = (
"270 230 LINE",
"270 280 LINE",
"190 260 LINE",
"190 210 LINE"
);
}
);
width = 430;
}
);
widthMetricsKey = "=seen-ar";
rightKerningGroup = bowel;
},
{
glyphname = "seen-ar.6";
layers = (
{
anchors = (
{
name = top;
position = "{180, 202}";
}
);
components = (
{
name = "noonghunna-ar.fina";
}
);
layerId = "67aa4fb0-543e-4232-8202-ade6a11e0795";
paths = (
{
closed = 1;
nodes = (
"301 0 LINE",
"301 70 LINE",
"80 70 LINE",
"80 0 LINE"
);
},
{
closed = 1;
nodes = (
"281 40 LINE",
"181 140 LINE",
"123 40 LINE"
);
},
{
closed = 1;
nodes = (
"310 0 LINE SMOOTH",
"316 0 OFFCURVE",
"331 0 OFFCURVE",
"331 11 CURVE SMOOTH",
"331 177 LINE",
"251 157 LINE",
"251 70 LINE",
"231 70 LINE",
"231 0 LINE"
);
}
);
width = 371;
}
);
rightKerningGroup = bowel;
},
{
glyphname = "seen-ar.init.1";
layers = (
{
anchors = (
{
name = top;
position = "{160, 300}";
}
);
components = (
{
alignment = -1;
name = "seen-ar.init";
}
);
layerId = "67aa4fb0-543e-4232-8202-ade6a11e0795";
paths = (
{
closed = 1;
nodes = (
"320 200 LINE",
"320 250 LINE",
"240 230 LINE",
"240 180 LINE"
);
},
{
closed = 1;
nodes = (
"80 200 LINE",
"80 250 LINE",
"0 230 LINE",
"0 180 LINE"
);
},
{
closed = 1;
nodes = (
"200 200 LINE",
"200 250 LINE",
"120 230 LINE",
"120 180 LINE"
);
}
);
width = 360;
}
);
widthMetricsKey = "=seen-ar.init";
},
{
glyphname = "seen-ar.init.2";
layers = (
{
anchors = (
{
name = top;
position = "{160, 300}";
}
);
components = (
{
alignment = -1;
name = "seen-ar.init";
}
);
layerId = "67aa4fb0-543e-4232-8202-ade6a11e0795";
paths = (
{
closed = 1;
nodes = (
"320 220 LINE",
"320 270 LINE",
"240 250 LINE",
"240 200 LINE"
);
},
{
closed = 1;
nodes = (
"80 220 LINE",
"80 270 LINE",
"0 250 LINE",
"0 200 LINE"
);
},
{
closed = 1;
nodes = (
"200 220 LINE",
"200 270 LINE",
"120 250 LINE",
"120 200 LINE"
);
}
);
width = 360;
}
);
widthMetricsKey = "=seen-ar.init";
},
{
glyphname = "seen-ar.init.3";
layers = (
{
anchors = (
{
name = top;
position = "{160, 290}";
}
);
components = (
{
alignment = -1;
name = "behDotless-ar.init";
transform = "{1, 0, 0, 1, 240, 0}";
},
{
alignment = -1;
name = "behDotless-ar.medi";
transform = "{1, 0, 0, 1, 120, 0}";
},
{
name = _elbow;
transform = "{1, 0, 0, 1, 40, 0}";
},
{
name = _behShort;
}
);
layerId = "67aa4fb0-543e-4232-8202-ade6a11e0795";
paths = (
{
closed = 1;
nodes = (
"200 190 LINE",
"200 240 LINE",
"120 220 LINE",
"120 170 LINE"
);
},
{
closed = 1;
nodes = (
"320 220 LINE",
"320 270 LINE",
"240 250 LINE",
"240 200 LINE"
);
}
);
width = 360;
}
);
widthMetricsKey = "=seen-ar.init";
},
{
glyphname = "seen-ar.init.4";
layers = (
{
anchors = (
{
name = top;
position = "{160, 300}";
}
);
components = (
{
alignment = -1;
name = "seen-ar.init.3";
}
);
layerId = "67aa4fb0-543e-4232-8202-ade6a11e0795";
paths = (
{
closed = 1;
nodes = (
"320 240 LINE",
"320 290 LINE",
"240 270 LINE",
"240 220 LINE"
);
},
{
closed = 1;
nodes = (
"80 180 LINE",
"80 230 LINE",
"0 210 LINE",
"0 160 LINE"
);
},
{
closed = 1;
nodes = (
"200 210 LINE",
"200 260 LINE",
"120 240 LINE",
"120 190 LINE"
);
}
);
width = 360;
}
);
widthMetricsKey = "=seen-ar.init";
},
{
glyphname = "seen-ar.init.5";
layers = (
{
anchors = (
{
name = top;
position = "{160, 320}";
}
);
components = (
{
alignment = -1;
name = "seen-ar.init.3";
}
);
layerId = "67aa4fb0-543e-4232-8202-ade6a11e0795";
paths = (
{
closed = 1;
nodes = (
"320 260 LINE",
"320 310 LINE",
"240 290 LINE",
"240 240 LINE"
);
},
{
closed = 1;
nodes = (
"80 200 LINE",
"80 250 LINE",
"0 230 LINE",
"0 180 LINE"
);
},
{
closed = 1;
nodes = (
"200 230 LINE",
"200 280 LINE",
"120 260 LINE",
"120 210 LINE"
);
}
);
width = 360;
}
);
widthMetricsKey = "=seen-ar.init";
},
{
glyphname = "seen-ar.init.6";
layers = (
{
anchors = (
{
name = top;
position = "{148, 215}";
}
);
components = (
{
name = "behDotless-ar.medi.1";
},
{
name = "behDotless-ar.medi.1";
transform = "{1, 0, 0, 1, 110, 0}";
}
);
layerId = "67aa4fb0-543e-4232-8202-ade6a11e0795";
paths = (
{
closed = 1;
nodes = (
"279 0 LINE SMOOTH",
"285 0 OFFCURVE",
"300 0 OFFCURVE",
"300 11 CURVE SMOOTH",
"300 177 LINE",
"220 157 LINE",
"220 70 LINE",
"200 70 LINE",
"200 0 LINE"
);
}
);
width = 340;
}
);
},
{
glyphname = "sad-ar";
layers = (
{
components = (
{
name = _bowelShort;
transform = "{1, 0, 0, 1, -80, 0}";
},
{
name = _sad;
transform = "{1, 0, 0, 1, 83, 0}";
}
);
layerId = "67aa4fb0-543e-4232-8202-ade6a11e0795";
paths = (
{
closed = 1;
nodes = (
"150 40 LINE",
"150 180 LINE",
"70 180 LINE",
"70 40 LINE"
);
},
{
closed = 1;
nodes = (
"150 147 LINE",
"150 180 LINE",
"70 260 LINE",
"30 190 LINE",
"102 118 LINE"
);
}
);
width = 740;
}
);
rightKerningGroup = bowel;
unicode = 0635;
},
{
glyphname = "sad-ar.init";
layers = (
{
components = (
{
name = _sad;
transform = "{1, 0, 0, 1, 13, 0}";
}
);
layerId = "67aa4fb0-543e-4232-8202-ade6a11e0795";
paths = (
{
closed = 1;
nodes = (
"46 70 LINE",
"-20 70 LINE",
"-20 0 LINE",
"46 0 LINE"
);
},
{
closed = 1;
nodes = (
"80 0 LINE",
"80 250 LINE",
"0 230 LINE",
"0 0 LINE"
);
}
);
width = 670;
}
);
},
{
glyphname = "tah-ar";
layers = (
{
components = (
{
name = _sad;
transform = "{1, 0, 0, 1, 93, 0}";
}
);
layerId = "67aa4fb0-543e-4232-8202-ade6a11e0795";
paths = (
{
closed = 1;
nodes = (
"126 0 LINE",
"126 70 LINE",
"40.4 70 LINE",
"0 0 LINE"
);
},
{
closed = 1;
nodes = (
"160 0 LINE",
"160 560 LINE",
"80 540 LINE",
"80 0 LINE"
);
}
);
width = 750;
}
);
unicode = 0637;
},
{
glyphname = "tah-ar.init";
layers = (
{
components = (
{
name = _sad;
transform = "{1, 0, 0, 1, 13, 0}";
}
);
layerId = "67aa4fb0-543e-4232-8202-ade6a11e0795";
paths = (
{
closed = 1;
nodes = (
"46 0 LINE",
"46 70 LINE",
"-20 70 LINE",
"-20 0 LINE"
);
},
{
closed = 1;
nodes = (
"80 0 LINE",
"80 560 LINE",
"0 540 LINE",
"0 0 LINE"
);
}
);
width = 670;
}
);
},
{
glyphname = "ain-ar";
layers = (
{
associatedMasterId = "67aa4fb0-543e-4232-8202-ade6a11e0795";
components = (
{
alignment = -1;
name = "ain-ar.init";
}
);
layerId = "abf4b10a-26e5-432c-8593-bf37389dfdfd";
name = Regular.1;
paths = (
{
closed = 1;
nodes = (
"90 70 LINE SMOOTH",
"40 70 OFFCURVE",
"0 30 OFFCURVE",
"0 -20 CURVE SMOOTH",
"0 -70 OFFCURVE",
"40 -110 OFFCURVE",
"90 -110 CURVE SMOOTH",
"535 -110 LINE",
"576 -40 LINE",
"100 -40 LINE SMOOTH",
"89 -40 OFFCURVE",
"80 -31 OFFCURVE",
"80 -20 CURVE SMOOTH",
"80 -9 OFFCURVE",
"89 0 OFFCURVE",
"100 0 CURVE SMOOTH",
"240 0 LINE",
"240 70 LINE"
);
},
{
closed = 1;
nodes = (
"640 70 LINE",
"220 70 LINE",
"220 0 LINE",
"599 0 LINE"
);
},
{
closed = 1;
nodes = (
"376 70 LINE",
"366 50 LINE",
"480 50 LINE",
"480 70 LINE",
"340 209.841 LINE",
"296 150 LINE"
);
},
{
closed = 1;
nodes = (
"640 150 LINE",
"220 150 LINE"
);
},
{
closed = 1;
nodes = (
"560 0 LINE",
"560 270 LINE"
);
},
{
closed = 1;
nodes = (
"480 0 LINE",
"480 270 LINE"
);
},
{
closed = 1;
nodes = (
"400 0 LINE",
"400 270 LINE"
);
},
{
closed = 1;
nodes = (
"375.732 69.972 LINE",
"319.376 126.328 LINE"
);
},
{
closed = 1;
nodes = (
"319 126 LINE",
"500 230 LINE"
);
}
);
width = 680;
},
{
components = (
{
alignment = -1;
name = "ain-ar.init";
transform = "{1, 0, 0, 1, 350, 0}";
},
{
alignment = -1;
name = _tail2;
}
);
layerId = "67aa4fb0-543e-4232-8202-ade6a11e0795";
paths = (
{
closed = 1;
nodes = (
"535 -110 LINE",
"576 -40 LINE",
"476 -40 LINE",
"476 -110 LINE"
);
},
{
closed = 1;
nodes = (
"360 0 LINE",
"360 70 LINE",
"210 70 LINE",
"210 0 LINE"
);
}
);
width = 680;
}
);
unicode = 0639;
},
{
glyphname = "ain-ar.1";
layers = (
{
associatedMasterId = "67aa4fb0-543e-4232-8202-ade6a11e0795";
components = (
{
alignment = -1;
name = "ain-ar.init";
}
);
layerId = "abf4b10a-26e5-432c-8593-bf37389dfdfd";
name = Regular.1;
paths = (
{
closed = 1;
nodes = (
"90 70 LINE SMOOTH",
"40 70 OFFCURVE",
"0 30 OFFCURVE",
"0 -20 CURVE SMOOTH",
"0 -70 OFFCURVE",
"40 -110 OFFCURVE",
"90 -110 CURVE SMOOTH",
"535 -110 LINE",
"576 -40 LINE",
"100 -40 LINE SMOOTH",
"89 -40 OFFCURVE",
"80 -31 OFFCURVE",
"80 -20 CURVE SMOOTH",
"80 -9 OFFCURVE",
"89 0 OFFCURVE",
"100 0 CURVE SMOOTH",
"240 0 LINE",
"240 70 LINE"
);
},
{
closed = 1;
nodes = (
"640 70 LINE",
"220 70 LINE",
"220 0 LINE",
"599 0 LINE"
);
},
{
closed = 1;
nodes = (
"376 70 LINE",
"366 50 LINE",
"480 50 LINE",
"480 70 LINE",
"340 209.841 LINE",
"296 150 LINE"
);
},
{
closed = 1;
nodes = (
"640 150 LINE",
"220 150 LINE"
);
},
{
closed = 1;
nodes = (
"560 0 LINE",
"560 270 LINE"
);
},
{
closed = 1;
nodes = (
"480 0 LINE",
"480 270 LINE"
);
},
{
closed = 1;
nodes = (
"400 0 LINE",
"400 270 LINE"
);
},
{
closed = 1;
nodes = (
"375.732 69.972 LINE",
"319.376 126.328 LINE"
);
},
{
closed = 1;
nodes = (
"319 126 LINE",
"500 230 LINE"
);
}
);
width = 680;
},
{
components = (
{
alignment = -1;
name = "ain-ar.init";
transform = "{1, 0, 0, 1, 199, 0}";
},
{
name = "alefMaksura-ar.fina.2";
}
);
layerId = "67aa4fb0-543e-4232-8202-ade6a11e0795";
width = 529;
}
);
},
{
glyphname = "ain-ar.2";
layers = (
{
associatedMasterId = "67aa4fb0-543e-4232-8202-ade6a11e0795";
components = (
{
alignment = -1;
name = "ain-ar.init";
}
);
layerId = "abf4b10a-26e5-432c-8593-bf37389dfdfd";
name = Regular.1;
paths = (
{
closed = 1;
nodes = (
"90 70 LINE SMOOTH",
"40 70 OFFCURVE",
"0 30 OFFCURVE",
"0 -20 CURVE SMOOTH",
"0 -70 OFFCURVE",
"40 -110 OFFCURVE",
"90 -110 CURVE SMOOTH",
"535 -110 LINE",
"576 -40 LINE",
"100 -40 LINE SMOOTH",
"89 -40 OFFCURVE",
"80 -31 OFFCURVE",
"80 -20 CURVE SMOOTH",
"80 -9 OFFCURVE",
"89 0 OFFCURVE",
"100 0 CURVE SMOOTH",
"240 0 LINE",
"240 70 LINE"
);
},
{
closed = 1;
nodes = (
"640 70 LINE",
"220 70 LINE",
"220 0 LINE",
"599 0 LINE"
);
},
{
closed = 1;
nodes = (
"376 70 LINE",
"366 50 LINE",
"480 50 LINE",
"480 70 LINE",
"340 209.841 LINE",
"296 150 LINE"
);
},
{
closed = 1;
nodes = (
"640 150 LINE",
"220 150 LINE"
);
},
{
closed = 1;
nodes = (
"560 0 LINE",
"560 270 LINE"
);
},
{
closed = 1;
nodes = (
"480 0 LINE",
"480 270 LINE"
);
},
{
closed = 1;
nodes = (
"400 0 LINE",
"400 270 LINE"
);
},
{
closed = 1;
nodes = (
"375.732 69.972 LINE",
"319.376 126.328 LINE"
);
},
{
closed = 1;
nodes = (
"319 126 LINE",
"500 230 LINE"
);
}
);
width = 680;
},
{
components = (
{
alignment = -1;
name = "ain-ar.init";
transform = "{1, 0, 0, 1, 199, 0}";
},
{
name = "alefMaksura-ar.fina.5";
}
);
layerId = "67aa4fb0-543e-4232-8202-ade6a11e0795";
width = 529;
}
);
},
{
glyphname = "ain-ar.3";
layers = (
{
associatedMasterId = "67aa4fb0-543e-4232-8202-ade6a11e0795";
components = (
{
alignment = -1;
name = "ain-ar.init";
}
);
layerId = "abf4b10a-26e5-432c-8593-bf37389dfdfd";
name = Regular.1;
paths = (
{
closed = 1;
nodes = (
"90 70 LINE SMOOTH",
"40 70 OFFCURVE",
"0 30 OFFCURVE",
"0 -20 CURVE SMOOTH",
"0 -70 OFFCURVE",
"40 -110 OFFCURVE",
"90 -110 CURVE SMOOTH",
"535 -110 LINE",
"576 -40 LINE",
"100 -40 LINE SMOOTH",
"89 -40 OFFCURVE",
"80 -31 OFFCURVE",
"80 -20 CURVE SMOOTH",
"80 -9 OFFCURVE",
"89 0 OFFCURVE",
"100 0 CURVE SMOOTH",
"240 0 LINE",
"240 70 LINE"
);
},
{
closed = 1;
nodes = (
"640 70 LINE",
"220 70 LINE",
"220 0 LINE",
"599 0 LINE"
);
},
{
closed = 1;
nodes = (
"376 70 LINE",
"366 50 LINE",
"480 50 LINE",
"480 70 LINE",
"340 209.841 LINE",
"296 150 LINE"
);
},
{
closed = 1;
nodes = (
"640 150 LINE",
"220 150 LINE"
);
},
{
closed = 1;
nodes = (
"560 0 LINE",
"560 270 LINE"
);
},
{
closed = 1;
nodes = (
"480 0 LINE",
"480 270 LINE"
);
},
{
closed = 1;
nodes = (
"400 0 LINE",
"400 270 LINE"
);
},
{
closed = 1;
nodes = (
"375.732 69.972 LINE",
"319.376 126.328 LINE"
);
},
{
closed = 1;
nodes = (
"319 126 LINE",
"500 230 LINE"
);
}
);
width = 680;
},
{
anchors = (
{
name = top;
position = "{145, 230}";
}
);
components = (
{
name = _tail3;
}
);
layerId = "67aa4fb0-543e-4232-8202-ade6a11e0795";
paths = (
{
closed = 1;
nodes = (
"249 0 LINE",
"290 70 LINE",
"163 70 LINE SMOOTH",
"142 70 OFFCURVE",
"130 87 OFFCURVE",
"130 106 CURVE SMOOTH",
"130 127 OFFCURVE",
"146 150 OFFCURVE",
"183 150 CURVE SMOOTH",
"196 150 OFFCURVE",
"212 147 OFFCURVE",
"230 140 CURVE",
"216 185 OFFCURVE",
"181 210 OFFCURVE",
"146 210 CURVE SMOOTH",
"28 210 OFFCURVE",
"14 26 OFFCURVE",
"130 0 CURVE"
);
}
);
width = 330;
}
);
},
{
glyphname = "ain-ar.fina";
layers = (
{
anchors = (
{
name = top;
position = "{143, 305}";
}
);
components = (
{
name = _tail3;
}
);
layerId = "67aa4fb0-543e-4232-8202-ade6a11e0795";
paths = (
{
closed = 1;
nodes = (
"303.82 0 LINE",
"303.82 70 LINE",
"150.225 70 LINE",
"150.225 0 LINE"
);
},
{
closed = 1;
nodes = (
"270.585 30.007 LINE",
"287.243 46.569 LINE",
"104.488 229.709 LINE",
"62 158.999 LINE",
"190.993 30.007 LINE"
);
},
{
closed = 1;
nodes = (
"264 11 LINE",
"264 270 LINE",
"183.965 250 LINE",
"183.965 11 LINE"
);
}
);
width = 304;
}
);
},
{
glyphname = "ain-ar.medi";
layers = (
{
anchors = (
{
name = top;
position = "{81, 305}";
}
);
layerId = "67aa4fb0-543e-4232-8202-ade6a11e0795";
paths = (
{
closed = 1;
nodes = (
"209.005 30.007 LINE",
"225.567 46.569 LINE",
"42.426 229.709 LINE",
"0 158.999 LINE",
"128.991 30.007 LINE"
);
},
{
closed = 1;
nodes = (
"242 0 LINE",
"242 70 LINE",
"-20 70 LINE",
"-20 0 LINE"
);
},
{
closed = 1;
nodes = (
"202 11 LINE",
"202 270 LINE",
"122 250 LINE",
"122 11 LINE"
);
}
);
width = 242;
}
);
},
{
glyphname = "ain-ar.init";
layers = (
{
anchors = (
{
name = top;
position = "{49, 230}";
}
);
layerId = "67aa4fb0-543e-4232-8202-ade6a11e0795";
paths = (
{
closed = 1;
nodes = (
"249 0 LINE",
"290 70 LINE",
"151 70 LINE SMOOTH",
"119 70 OFFCURVE",
"66 117 OFFCURVE",
"66 148 CURVE SMOOTH",
"66 187 OFFCURVE",
"131 218 OFFCURVE",
"151 227 CURVE",
"150 230 LINE",
"97 204 OFFCURVE",
"4 157 OFFCURVE",
"4 109 CURVE SMOOTH",
"4 96 OFFCURVE",
"10 83 OFFCURVE",
"26 70 CURVE",
"-20 70 LINE",
"-20 0 LINE"
);
}
);
width = 330;
},
{
anchors = (
{
name = top;
position = "{135, 305}";
}
);
associatedMasterId = "67aa4fb0-543e-4232-8202-ade6a11e0795";
layerId = "CF9F8CC6-D0D9-41C9-A8B8-9A53E322F711";
name = "Mar 9 20, 16:04";
paths = (
{
closed = 1;
nodes = (
"249 0 LINE",
"290 70 LINE",
"130 70 LINE SMOOTH",
"83 103 OFFCURVE",
"66 128 OFFCURVE",
"66 148 CURVE SMOOTH",
"66 187 OFFCURVE",
"131 218 OFFCURVE",
"151 227 CURVE",
"150 230 LINE",
"97 204 OFFCURVE",
"4 157 OFFCURVE",
"4 109 CURVE SMOOTH",
"4 96 OFFCURVE",
"10 83 OFFCURVE",
"26 70 CURVE",
"-20 70 LINE",
"-20 0 LINE"
);
}
);
visible = 1;
width = 330;
}
);
},
{
glyphname = "ain-ar.init.1";
layers = (
{
anchors = (
{
name = top;
position = "{95, 230}";
}
);
layerId = "67aa4fb0-543e-4232-8202-ade6a11e0795";
paths = (
{
closed = 1;
nodes = (
"199 0 LINE",
"240 70 LINE",
"113 70 LINE SMOOTH",
"92 70 OFFCURVE",
"80 87 OFFCURVE",
"80 106 CURVE SMOOTH",
"80 127 OFFCURVE",
"96 150 OFFCURVE",
"133 150 CURVE SMOOTH",
"146 150 OFFCURVE",
"162 147 OFFCURVE",
"180 140 CURVE",
"166 185 OFFCURVE",
"131 210 OFFCURVE",
"96 210 CURVE SMOOTH",
"-22 210 OFFCURVE",
"-36 26 OFFCURVE",
"80 0 CURVE"
);
},
{
closed = 1;
nodes = (
"193 0 LINE",
"193 70 LINE",
"-20 70 LINE",
"-20 0 LINE"
);
}
);
width = 280;
},
{
anchors = (
{
name = top;
position = "{49, 230}";
}
);
associatedMasterId = "67aa4fb0-543e-4232-8202-ade6a11e0795";
guideLines = (
{
position = "{366, 210}";
},
{
angle = 90;
position = "{290, 210}";
},
{
position = "{367, 140}";
},
{
angle = 90;
position = "{210, 210}";
},
{
angle = 90;
position = "{130, 210}";
},
{
angle = 90;
position = "{50, 210}";
},
{
angle = 90;
position = "{230, 210}";
}
);
layerId = "F7344B96-69D7-4772-B92B-16315C87848D";
name = "Mar 9 20, 21:39";
paths = (
{
closed = 1;
nodes = (
"249 0 LINE",
"290 70 LINE",
"163 70 LINE SMOOTH",
"108 70 OFFCURVE",
"118 195 OFFCURVE",
"230 140 CURVE",
"90 295 OFFCURVE",
"-37 37 OFFCURVE",
"130 0 CURVE"
);
}
);
width = 330;
}
);
},
{
glyphname = "fehDotless-ar";
layers = (
{
associatedMasterId = "67aa4fb0-543e-4232-8202-ade6a11e0795";
components = (
{
alignment = -1;
name = "fehDotless-ar.init";
}
);
layerId = "abf4b10a-26e5-432c-8593-bf37389dfdfd";
name = Regular.1;
paths = (
{
closed = 1;
nodes = (
"440.003 211.038 OFFCURVE",
"448.964 220 OFFCURVE",
"460.003 220 CURVE SMOOTH",
"471.041 220 OFFCURVE",
"480.003 211.038 OFFCURVE",
"480.003 200 CURVE SMOOTH",
"480.003 188.962 OFFCURVE",
"471.041 180 OFFCURVE",
"460.003 180 CURVE SMOOTH",
"448.964 180 OFFCURVE",
"440.003 188.962 OFFCURVE",
"440.003 200 CURVE SMOOTH"
);
},
{
closed = 1;
nodes = (
"359.981 150.328 OFFCURVE",
"404.789 110 OFFCURVE",
"459.981 110 CURVE SMOOTH",
"515.172 110 OFFCURVE",
"559.981 150.328 OFFCURVE",
"559.981 200 CURVE SMOOTH",
"559.981 249.672 OFFCURVE",
"515.172 290 OFFCURVE",
"459.981 290 CURVE SMOOTH",
"404.789 290 OFFCURVE",
"359.981 249.672 OFFCURVE",
"359.981 200 CURVE SMOOTH"
);
},
{
closed = 1;
nodes = (
"480 210 LINE",
"480 155.4 OFFCURVE",
"480 124.6 OFFCURVE",
"480 70 CURVE",
"100 70 LINE",
"79.847 70.357 OFFCURVE",
"63.184 75.474 OFFCURVE",
"52 90 CURVE",
"0 0 LINE",
"539 0 LINE SMOOTH",
"545 0 OFFCURVE",
"560 0 OFFCURVE",
"560 11 CURVE SMOOTH",
"560 84.71 OFFCURVE",
"560 126.29 OFFCURVE",
"560 200 CURVE"
);
}
);
width = 600;
},
{
components = (
{
alignment = -1;
name = "fehDotless-ar.init";
transform = "{1, 0, 0, 1, 360, 0}";
},
{
alignment = -1;
name = _tail;
}
);
layerId = "67aa4fb0-543e-4232-8202-ade6a11e0795";
width = 613;
}
);
unicode = 06A1;
},
{
glyphname = "fehDotless-ar.2";
layers = (
{
components = (
{
alignment = -1;
name = "fehDotless-ar.init";
transform = "{1, 0, 0, 1, 400, 0}";
},
{
alignment = -1;
name = _tail;
}
);
layerId = "67aa4fb0-543e-4232-8202-ade6a11e0795";
paths = (
{
closed = 1;
nodes = (
"390 0 LINE",
"390 70 LINE",
"320 70 LINE",
"320 0 LINE"
);
}
);
width = 653;
}
);
},
{
glyphname = "fehDotless-ar.3";
layers = (
{
components = (
{
alignment = -1;
name = "fehDotless-ar.init.1";
transform = "{1, 0, 0, 1, 400, 0}";
},
{
alignment = -1;
name = _tail;
}
);
layerId = "67aa4fb0-543e-4232-8202-ade6a11e0795";
paths = (
{
closed = 1;
nodes = (
"390 0 LINE",
"390 70 LINE",
"320 70 LINE",
"320 0 LINE"
);
}
);
width = 640;
}
);
},
{
glyphname = "fehDotless-ar.fina";
layers = (
{
components = (
{
alignment = -1;
name = "fehDotless-ar";
}
);
layerId = "67aa4fb0-543e-4232-8202-ade6a11e0795";
paths = (
{
closed = 1;
nodes = (
"613 0 LINE",
"613 70 LINE",
"513 70 LINE",
"513 0 LINE"
);
}
);
width = 613;
}
);
widthMetricsKey = "=fehDotless-ar";
},
{
glyphname = "fehDotless-ar.fina.1";
layers = (
{
components = (
{
alignment = -1;
name = "fehDotless-ar.1";
}
);
layerId = "67aa4fb0-543e-4232-8202-ade6a11e0795";
paths = (
{
closed = 1;
nodes = (
"600 0 LINE",
"600 70 LINE",
"500 70 LINE",
"500 0 LINE"
);
}
);
width = 600;
}
);
widthMetricsKey = "fehDotless-ar.1";
},
{
glyphname = "fehDotless-ar.fina.2";
layers = (
{
components = (
{
alignment = -1;
name = "fehDotless-ar.2";
}
);
layerId = "67aa4fb0-543e-4232-8202-ade6a11e0795";
paths = (
{
closed = 1;
nodes = (
"653 0 LINE",
"653 70 LINE",
"540 70 LINE",
"540 0 LINE"
);
}
);
width = 653;
}
);
widthMetricsKey = "fehDotless-ar.2";
},
{
glyphname = "fehDotless-ar.fina.3";
layers = (
{
components = (
{
alignment = -1;
name = "fehDotless-ar.3";
}
);
layerId = "67aa4fb0-543e-4232-8202-ade6a11e0795";
paths = (
{
closed = 1;
nodes = (
"640 0 LINE",
"640 70 LINE",
"540 70 LINE",
"540 0 LINE"
);
}
);
width = 640;
}
);
widthMetricsKey = "fehDotless-ar.3";
},
{
glyphname = "fehDotless-ar.medi";
layers = (
{
anchors = (
{
name = top;
position = "{101, 355}";
}
);
layerId = "67aa4fb0-543e-4232-8202-ade6a11e0795";
paths = (
{
closed = 1;
nodes = (
"206 11 LINE",
"206 177 LINE SMOOTH",
"206 234 OFFCURVE",
"160 280 OFFCURVE",
"103 280 CURVE SMOOTH",
"46 280 OFFCURVE",
"-1 234 OFFCURVE",
"-1 177 CURVE SMOOTH",
"-1 149 OFFCURVE",
"13 122 OFFCURVE",
"33 104 CURVE SMOOTH",
"146 0 LINE",
"213 0 LINE",
"219 17 LINE",
"79 164 LINE SMOOTH",
"74 169 OFFCURVE",
"73 176 OFFCURVE",
"73 184 CURVE SMOOTH",
"73 198 OFFCURVE",
"85 210 OFFCURVE",
"100 210 CURVE SMOOTH",
"114 210 OFFCURVE",
"126 198 OFFCURVE",
"126 184 CURVE SMOOTH",
"126 11 LINE"
);
},
{
closed = 1;
nodes = (
"248 0 LINE",
"248 70 LINE",
"-20 70 LINE",
"-20 0 LINE"
);
}
);
width = 248;
},
{
anchors = (
{
name = top;
position = "{101, 375}";
}
);
associatedMasterId = "67aa4fb0-543e-4232-8202-ade6a11e0795";
layerId = "388FE02E-045B-46C0-BFA3-7E7C5E94DC12";
name = "Mar 9 20, 18:01";
paths = (
{
closed = 1;
nodes = (
"206 1 LINE",
"206 197 LINE SMOOTH",
"206 254 OFFCURVE",
"160 300 OFFCURVE",
"103 300 CURVE SMOOTH",
"46 300 OFFCURVE",
"-1 254 OFFCURVE",
"-1 197 CURVE SMOOTH",
"-1 169 OFFCURVE",
"10 143 OFFCURVE",
"29 124 CURVE SMOOTH",
"133 20 LINE",
"213 20 LINE",
"230 37 LINE",
"82 184 LINE SMOOTH",
"77 189 OFFCURVE",
"73 196 OFFCURVE",
"73 204 CURVE SMOOTH",
"73 218 OFFCURVE",
"85 230 OFFCURVE",
"100 230 CURVE SMOOTH",
"114 230 OFFCURVE",
"126 218 OFFCURVE",
"126 204 CURVE SMOOTH",
"126 1 LINE"
);
},
{
closed = 1;
nodes = (
"248 0 LINE",
"248 70 LINE",
"-20 70 LINE",
"-20 0 LINE"
);
}
);
width = 248;
}
);
},
{
glyphname = "fehDotless-ar.medi.1";
layers = (
{
associatedMasterId = "67aa4fb0-543e-4232-8202-ade6a11e0795";
layerId = "abf4b10a-26e5-432c-8593-bf37389dfdfd";
name = Regular.1;
paths = (
{
closed = 1;
nodes = (
"242 70 LINE",
"-20 70 LINE",
"-20 0 LINE",
"242 0 LINE"
);
},
{
closed = 1;
nodes = (
"0 158.999 LINE",
"128.991 30.007 LINE",
"209.005 30.007 LINE",
"225.567 46.569 LINE",
"42.426 229.709 LINE"
);
},
{
closed = 1;
nodes = (
"122 250 LINE",
"122 11 LINE",
"202 11 LINE",
"202 270 LINE"
);
}
);
width = 242;
},
{
components = (
{
alignment = -1;
name = "kashida-ar";
transform = "{1, 0, 0, 1, 160, 0}";
},
{
alignment = -1;
name = "fehDotless-ar.init.1";
}
);
layerId = "67aa4fb0-543e-4232-8202-ade6a11e0795";
width = 240;
}
);
widthMetricsKey = "=fehDotless-ar.init.1";
},
{
glyphname = "fehDotless-ar.init";
layers = (
{
anchors = (
{
name = top;
position = "{87, 335}";
}
);
layerId = "67aa4fb0-543e-4232-8202-ade6a11e0795";
paths = (
{
closed = 1;
nodes = (
"176 0 LINE SMOOTH",
"199.799 0 OFFCURVE",
"213.289 37.131 OFFCURVE",
"213.289 101.673 CURVE SMOOTH",
"213.289 178.852 OFFCURVE",
"194 290 OFFCURVE",
"100.88 290 CURVE SMOOTH",
"44.789 290 OFFCURVE",
"-0.02 249.672 OFFCURVE",
"-0.02 200 CURVE SMOOTH",
"-0.02 150.328 OFFCURVE",
"44.789 110 OFFCURVE",
"99.976 110 CURVE SMOOTH",
"110.259 110 OFFCURVE",
"120.391 111.4 OFFCURVE",
"130.105 114.162 CURVE",
"131.509 106.753 OFFCURVE",
"132.265 99.274 OFFCURVE",
"132.265 91.801 CURVE SMOOTH",
"132.265 84.504 OFFCURVE",
"131.544 77.214 OFFCURVE",
"130 70 CURVE",
"-20 70 LINE",
"-20 0 LINE"
);
},
{
closed = 1;
nodes = (
"88.964 180 OFFCURVE",
"80.003 188.962 OFFCURVE",
"80.003 200 CURVE SMOOTH",
"80.003 211.038 OFFCURVE",
"88.964 220 OFFCURVE",
"100.003 220 CURVE SMOOTH",
"111.041 220 OFFCURVE",
"120.003 211.038 OFFCURVE",
"120.003 200 CURVE SMOOTH",
"120.003 188.962 OFFCURVE",
"111.041 180 OFFCURVE",
"100.003 180 CURVE SMOOTH"
);
}
);
width = 253;
}
);
},
{
glyphname = "fehDotless-ar.init.1";
layers = (
{
anchors = (
{
name = top;
position = "{90, 365}";
}
);
layerId = "67aa4fb0-543e-4232-8202-ade6a11e0795";
paths = (
{
closed = 1;
nodes = (
"179 0 LINE",
"185 0 OFFCURVE",
"200 0 OFFCURVE",
"200 11 CURVE",
"200 200 LINE",
"120 210 LINE",
"120 70 LINE",
"-20 70 LINE",
"-20 0 LINE"
);
},
{
closed = 1;
nodes = (
"155.172 110 OFFCURVE",
"199.981 150.328 OFFCURVE",
"199.981 200 CURVE SMOOTH",
"199.981 249.672 OFFCURVE",
"155.172 290 OFFCURVE",
"99.981 290 CURVE SMOOTH",
"44.789 290 OFFCURVE",
"-0.02 249.672 OFFCURVE",
"-0.02 200 CURVE SMOOTH",
"-0.02 150.328 OFFCURVE",
"44.789 110 OFFCURVE",
"99.981 110 CURVE SMOOTH"
);
},
{
closed = 1;
nodes = (
"88.964 180 OFFCURVE",
"80.003 188.962 OFFCURVE",
"80.003 200 CURVE SMOOTH",
"80.003 211.038 OFFCURVE",
"88.964 220 OFFCURVE",
"100.003 220 CURVE SMOOTH",
"111.041 220 OFFCURVE",
"120.003 211.038 OFFCURVE",
"120.003 200 CURVE SMOOTH",
"120.003 188.962 OFFCURVE",
"111.041 180 OFFCURVE",
"100.003 180 CURVE SMOOTH"
);
}
);
width = 240;
}
);
},
{
glyphname = "qafDotless-ar";
layers = (
{
anchors = (
{
name = top;
position = "{96, 255}";
}
);
layerId = "67aa4fb0-543e-4232-8202-ade6a11e0795";
paths = (
{
closed = 1;
nodes = (
"235 -250 LINE SMOOTH",
"241 -250 OFFCURVE",
"256 -250 OFFCURVE",
"256 -229 CURVE",
"256 -90 OFFCURVE",
"186 -70 OFFCURVE",
"142 -70 CURVE SMOOTH",
"76 -70 LINE",
"0 -140 LINE",
"132 -140 LINE SMOOTH",
"154 -140 OFFCURVE",
"172 -158 OFFCURVE",
"172 -180 CURVE",
"-24 -180 LINE",
"-64 -250 LINE"
);
},
{
closed = 1;
nodes = (
"28 -140 LINE",
"179 27 LINE",
"190 61 LINE",
"183 61 LINE",
"0 -140 LINE"
);
},
{
closed = 1;
nodes = (
"165 0 OFFCURVE",
"200 30 OFFCURVE",
"200 90 CURVE SMOOTH",
"200 140 OFFCURVE",
"155 180 OFFCURVE",
"100 180 CURVE SMOOTH",
"45 180 OFFCURVE",
"0 140 OFFCURVE",
"0 90 CURVE SMOOTH",
"0 30 OFFCURVE",
"45 0 OFFCURVE",
"100 0 CURVE SMOOTH"
);
},
{
closed = 1;
nodes = (
"89 70 OFFCURVE",
"80 79 OFFCURVE",
"80 90 CURVE SMOOTH",
"80 101 OFFCURVE",
"89 110 OFFCURVE",
"100 110 CURVE SMOOTH",
"111 110 OFFCURVE",
"120 101 OFFCURVE",
"120 90 CURVE SMOOTH",
"120 79 OFFCURVE",
"111 70 OFFCURVE",
"100 70 CURVE SMOOTH"
);
}
);
width = 296;
}
);
unicode = 066F;
},
{
glyphname = "qafDotless-ar.fina";
layers = (
{
components = (
{
alignment = -1;
name = "qafDotless-ar";
}
);
layerId = "67aa4fb0-543e-4232-8202-ade6a11e0795";
paths = (
{
closed = 1;
nodes = (
"256 0 LINE",
"256 70 LINE",
"100 70 LINE",
"100 0 LINE"
);
}
);
width = 256;
}
);
leftKerningGroup = waw;
},
{
glyphname = "kaf-ar";
layers = (
{
components = (
{
name = _dal;
transform = "{1, 0, 0, 1, 40, 0}";
}
);
layerId = "67aa4fb0-543e-4232-8202-ade6a11e0795";
paths = (
{
closed = 1;
nodes = (
"91.321 126.053 LINE",
"153.815 209.554 OFFCURVE",
"189.211 315.576 OFFCURVE",
"189.211 443.119 CURVE SMOOTH",
"189.211 480.263 OFFCURVE",
"186.209 519.231 OFFCURVE",
"180 560 CURVE",
"100 480 LINE",
"106.84 439.661 OFFCURVE",
"110.571 397.695 OFFCURVE",
"110.571 355.374 CURVE SMOOTH",
"110.571 271.705 OFFCURVE",
"95.987 186.643 OFFCURVE",
"62 110 CURVE"
);
},
{
closed = 1;
nodes = (
"116 70 LINE",
"40.4 70 LINE",
"0 0 LINE",
"116 0 LINE"
);
},
{
closed = 1;
nodes = (
"175 180 LINE",
"103 180 LINE",
"62 110 LINE",
"176 110 LINE"
);
}
);
width = 640;
}
);
rightKerningGroup = dal;
unicode = 0643;
},
{
glyphname = "kaf-ar.1";
layers = (
{
components = (
{
name = _dal;
transform = "{1, 0, 0, 1, 40, 0}";
}
);
layerId = "67aa4fb0-543e-4232-8202-ade6a11e0795";
paths = (
{
closed = 1;
nodes = (
"116 70 LINE",
"40.4 70 LINE",
"0 0 LINE",
"116 0 LINE"
);
},
{
closed = 1;
nodes = (
"120 110 LINE",
"120 560 LINE",
"40 540 LINE",
"40 110 LINE"
);
},
{
closed = 1;
nodes = (
"175 180 LINE",
"103 180 LINE",
"103 110 LINE",
"176 110 LINE"
);
}
);
width = 640;
}
);
rightKerningGroup = dal;
},
{
glyphname = "kaf-ar.2";
layers = (
{
components = (
{
name = _dal;
transform = "{1, 0, 0, 1, 40, 0}";
}
);
layerId = "67aa4fb0-543e-4232-8202-ade6a11e0795";
paths = (
{
closed = 1;
nodes = (
"116 70 LINE",
"40.4 70 LINE",
"0 0 LINE",
"116 0 LINE"
);
},
{
closed = 1;
nodes = (
"186 180 LINE",
"120 180 LINE",
"147 250 LINE",
"144.4 250 LINE",
"63.5 110 LINE",
"186 110 LINE"
);
}
);
width = 640;
}
);
rightKerningGroup = dal;
},
{
glyphname = "kaf-ar.fina";
layers = (
{
components = (
{
alignment = -1;
name = "kaf-ar";
}
);
layerId = "67aa4fb0-543e-4232-8202-ade6a11e0795";
paths = (
{
closed = 1;
nodes = (
"640 0 LINE",
"640 70 LINE",
"540 70 LINE",
"540 0 LINE"
);
}
);
width = 640;
}
);
leftKerningGroup = waw;
rightKerningGroup = dal;
},
{
glyphname = "kaf-ar.fina.1";
layers = (
{
components = (
{
alignment = -1;
name = "kaf-ar.1";
}
);
layerId = "67aa4fb0-543e-4232-8202-ade6a11e0795";
paths = (
{
closed = 1;
nodes = (
"640 0 LINE",
"640 70 LINE",
"540 70 LINE",
"540 0 LINE"
);
}
);
width = 640;
}
);
leftKerningGroup = waw;
rightKerningGroup = dal;
},
{
glyphname = "kaf-ar.init";
layers = (
{
components = (
{
name = _dal;
transform = "{1, 0, 0, 1, -22, 0}";
}
);
layerId = "67aa4fb0-543e-4232-8202-ade6a11e0795";
paths = (
{
closed = 1;
nodes = (
"54 0 LINE",
"54 70 LINE",
"-20 70 LINE",
"-20 0 LINE"
);
},
{
closed = 1;
nodes = (
"29 126 LINE",
"92 210 OFFCURVE",
"127 316 OFFCURVE",
"127 443 CURVE SMOOTH",
"127 480 OFFCURVE",
"124 519 OFFCURVE",
"118 560 CURVE",
"38 480 LINE",
"45 440 OFFCURVE",
"49 398 OFFCURVE",
"49 355 CURVE SMOOTH",
"49 272 OFFCURVE",
"34 187 OFFCURVE",
"0 110 CURVE"
);
},
{
closed = 1;
nodes = (
"113 180 LINE",
"41 180 LINE",
"0 110 LINE",
"114 110 LINE"
);
}
);
width = 578;
}
);
},
{
glyphname = "kaf-ar.init.1";
layers = (
{
components = (
{
name = _dal;
}
);
layerId = "67aa4fb0-543e-4232-8202-ade6a11e0795";
paths = (
{
closed = 1;
nodes = (
"80 110 LINE",
"80 560 LINE",
"0 540 LINE",
"0 110 LINE"
);
},
{
closed = 1;
nodes = (
"135 180 LINE",
"63 180 LINE",
"63 110 LINE",
"136 110 LINE"
);
},
{
closed = 1;
nodes = (
"54 0 LINE",
"54 70 LINE",
"-20 70 LINE",
"-20 0 LINE"
);
}
);
width = 600;
}
);
},
{
glyphname = "kaf-ar.init.2";
layers = (
{
components = (
{
name = _dal;
transform = "{1, 0, 0, 1, -20, 0}";
}
);
layerId = "67aa4fb0-543e-4232-8202-ade6a11e0795";
paths = (
{
closed = 1;
nodes = (
"122 180 LINE",
"56 180 LINE",
"83 250 LINE",
"80 250 LINE",
"0 110 LINE",
"122 110 LINE"
);
},
{
closed = 1;
nodes = (
"50 0 LINE",
"50 70 LINE",
"-20 70 LINE",
"-20 0 LINE"
);
}
);
width = 580;
}
);
},
{
glyphname = "lam-ar";
layers = (
{
layerId = "67aa4fb0-543e-4232-8202-ade6a11e0795";
paths = (
{
closed = 1;
nodes = (
"112 -250 LINE",
"135 -250 OFFCURVE",
"150 -235 OFFCURVE",
"150 -210 CURVE SMOOTH",
"150 560 LINE",
"70 540 LINE",
"70 -180 LINE",
"-30 -180 LINE",
"-50 -180 OFFCURVE",
"-67 -175 OFFCURVE",
"-78 -160 CURVE",
"-130 -250 LINE"
);
}
);
width = 190;
}
);
rightKerningGroup = bowel;
unicode = 0644;
},
{
glyphname = "lam-ar.medi.lellah";
layers = (
{
components = (
{
name = _elbow;
transform = "{1, 0, 0, 1, 40, 0}";
}
);
layerId = "67aa4fb0-543e-4232-8202-ade6a11e0795";
paths = (
{
closed = 1;
nodes = (
"42 0 LINE",
"65 0 OFFCURVE",
"80 15 OFFCURVE",
"80 40 CURVE SMOOTH",
"80 500 LINE",
"0 480 LINE",
"0 70 LINE",
"-20 70 LINE",
"-20 0 LINE"
);
}
);
width = 120;
}
);
},
{
glyphname = "lam-ar.init";
layers = (
{
layerId = "67aa4fb0-543e-4232-8202-ade6a11e0795";
paths = (
{
closed = 1;
nodes = (
"42 0 LINE",
"65 0 OFFCURVE",
"80 15 OFFCURVE",
"80 40 CURVE SMOOTH",
"80 560 LINE",
"0 540 LINE",
"0 70 LINE",
"-20 70 LINE",
"-20 0 LINE"
);
}
);
width = 120;
}
);
},
{
glyphname = "lam-ar.init.hah";
layers = (
{
anchors = (
{
name = exit;
position = "{-20, -2}";
}
);
layerId = "67aa4fb0-543e-4232-8202-ade6a11e0795";
paths = (
{
closed = 1;
nodes = (
"36.774 0 OFFCURVE",
"80 30.11 OFFCURVE",
"80 70 CURVE",
"80 450 LINE",
"0 430 LINE",
"0 70 LINE",
"0 51.332 OFFCURVE",
"-0.2 25.365 OFFCURVE",
"-20 24.696 CURVE",
"-20 0 LINE"
);
}
);
width = 80;
}
);
},
{
glyphname = "lam-ar.init.lellah";
layers = (
{
layerId = "67aa4fb0-543e-4232-8202-ade6a11e0795";
paths = (
{
closed = 1;
nodes = (
"42 0 LINE",
"65 0 OFFCURVE",
"80 15 OFFCURVE",
"80 40 CURVE SMOOTH",
"80 530 LINE",
"0 510 LINE",
"0 70 LINE",
"-20 70 LINE",
"-20 0 LINE"
);
}
);
width = 120;
}
);
},
{
glyphname = "meem-ar";
layers = (
{
layerId = "67aa4fb0-543e-4232-8202-ade6a11e0795";
paths = (
{
closed = 1;
nodes = (
"365 0 OFFCURVE",
"399.981 30 OFFCURVE",
"399.981 90 CURVE SMOOTH",
"399.981 139.672 OFFCURVE",
"355.172 180 OFFCURVE",
"299.981 180 CURVE SMOOTH",
"244.789 180 OFFCURVE",
"199.981 140 OFFCURVE",
"199.981 90 CURVE SMOOTH",
"199.981 30 OFFCURVE",
"244.789 0 OFFCURVE",
"299.981 0 CURVE SMOOTH"
);
},
{
closed = 1;
nodes = (
"300 0 LINE",
"300 70 LINE",
"100 70 LINE",
"79.847 70 OFFCURVE",
"63.184 75.474 OFFCURVE",
"52 90 CURVE",
"0 0 LINE"
);
},
{
closed = 1;
nodes = (
"288.942 70 OFFCURVE",
"279.981 78.962 OFFCURVE",
"279.981 90 CURVE SMOOTH",
"279.981 101.038 OFFCURVE",
"288.942 110 OFFCURVE",
"299.981 110 CURVE SMOOTH",
"311.019 110 OFFCURVE",
"319.981 101.038 OFFCURVE",
"319.981 90 CURVE SMOOTH",
"319.981 78.962 OFFCURVE",
"311.019 70 OFFCURVE",
"299.981 70 CURVE SMOOTH"
);
}
);
width = 440;
}
);
rightKerningGroup = dal;
unicode = 0645;
},
{
glyphname = "meem-ar.1";
layers = (
{
layerId = "67aa4fb0-543e-4232-8202-ade6a11e0795";
paths = (
{
closed = 1;
nodes = (
"205 0 OFFCURVE",
"239.981 30 OFFCURVE",
"239.981 90 CURVE SMOOTH",
"239.981 139.672 OFFCURVE",
"195.172 180 OFFCURVE",
"139.981 180 CURVE SMOOTH",
"84.789 180 OFFCURVE",
"39.981 140 OFFCURVE",
"39.981 90 CURVE SMOOTH",
"39.981 30 OFFCURVE",
"84.789 0 OFFCURVE",
"139.981 0 CURVE SMOOTH"
);
},
{
closed = 1;
nodes = (
"140.022 0 LINE",
"39.981 90 LINE",
"39.981 50 OFFCURVE",
"35 20 OFFCURVE",
"0 0 CURVE"
);
},
{
closed = 1;
nodes = (
"128.964 70 OFFCURVE",
"120.003 78.962 OFFCURVE",
"120.003 90 CURVE SMOOTH",
"120.003 101.038 OFFCURVE",
"128.964 110 OFFCURVE",
"140.003 110 CURVE SMOOTH",
"151.041 110 OFFCURVE",
"160.003 101.038 OFFCURVE",
"160.003 90 CURVE SMOOTH",
"160.003 78.962 OFFCURVE",
"151.041 70 OFFCURVE",
"140.003 70 CURVE SMOOTH"
);
}
);
width = 280;
}
);
rightKerningGroup = dal;
},
{
glyphname = "meem-ar.2";
layers = (
{
layerId = "67aa4fb0-543e-4232-8202-ade6a11e0795";
paths = (
{
closed = 1;
nodes = (
"203 -40 OFFCURVE",
"237.981 -10 OFFCURVE",
"237.981 50 CURVE SMOOTH",
"237.981 99.672 OFFCURVE",
"193.172 140 OFFCURVE",
"137.981 140 CURVE SMOOTH",
"82.789 140 OFFCURVE",
"37.981 100 OFFCURVE",
"37.981 50 CURVE SMOOTH",
"37.981 -10 OFFCURVE",
"82.789 -40 OFFCURVE",
"137.981 -40 CURVE SMOOTH"
);
},
{
closed = 1;
nodes = (
"80 0 LINE",
"38.639 60.099 LINE",
"35.381 34.693 OFFCURVE",
"25.855 14.66 OFFCURVE",
"0.2 0 CURVE"
);
},
{
closed = 1;
nodes = (
"126.964 30 OFFCURVE",
"118.003 38.962 OFFCURVE",
"118.003 50 CURVE SMOOTH",
"118.003 61.038 OFFCURVE",
"126.964 70 OFFCURVE",
"138.003 70 CURVE SMOOTH",
"149.041 70 OFFCURVE",
"158.003 61.038 OFFCURVE",
"158.003 50 CURVE SMOOTH",
"158.003 38.962 OFFCURVE",
"149.041 30 OFFCURVE",
"138.003 30 CURVE SMOOTH"
);
}
);
width = 278;
}
);
rightKerningGroup = dal;
},
{
glyphname = "meem-ar.fina";
layers = (
{
components = (
{
alignment = -1;
name = "meem-ar";
}
);
layerId = "67aa4fb0-543e-4232-8202-ade6a11e0795";
paths = (
{
closed = 1;
nodes = (
"440 0 LINE",
"440 70 LINE",
"300 70 LINE",
"300 0 LINE"
);
}
);
width = 440;
}
);
leftKerningGroup = waw;
rightKerningGroup = dal;
},
{
glyphname = "meem-ar.fina.1";
layers = (
{
components = (
{
alignment = -1;
name = "meem-ar.1";
}
);
layerId = "67aa4fb0-543e-4232-8202-ade6a11e0795";
paths = (
{
closed = 1;
nodes = (
"280 0 LINE",
"280 70 LINE",
"140 70 LINE",
"140 0 LINE"
);
}
);
width = 280;
}
);
leftKerningGroup = waw;
rightKerningGroup = dal;
},
{
glyphname = "meem-ar.fina.2";
layers = (
{
components = (
{
alignment = -1;
name = "meem-ar.2";
transform = "{1, 0, 0, 1, -2, 0}";
}
);
layerId = "67aa4fb0-543e-4232-8202-ade6a11e0795";
paths = (
{
closed = 1;
nodes = (
"276 0 LINE",
"276 70 LINE",
"216 70 LINE",
"216 0 LINE"
);
}
);
width = 276;
}
);
leftKerningGroup = waw;
rightKerningGroup = dal;
},
{
glyphname = "meem-ar.medi";
layers = (
{
components = (
{
alignment = -1;
name = "meem-ar.init";
}
);
layerId = "67aa4fb0-543e-4232-8202-ade6a11e0795";
paths = (
{
closed = 1;
nodes = (
"240 0 LINE",
"240 70 LINE",
"100 70 LINE",
"100 0 LINE"
);
}
);
width = 240;
}
);
leftKerningGroup = "hah-ar.init";
rightKerningGroup = "meem-ar.medi";
},
{
glyphname = "meem-ar.medi.1";
layers = (
{
layerId = "67aa4fb0-543e-4232-8202-ade6a11e0795";
paths = (
{
closed = 1;
nodes = (
"165 -40 OFFCURVE",
"199.981 -10 OFFCURVE",
"199.981 50 CURVE SMOOTH",
"199.981 99.672 OFFCURVE",
"155.172 140 OFFCURVE",
"99.981 140 CURVE SMOOTH",
"44.789 140 OFFCURVE",
"-0.019 99.672 OFFCURVE",
"-0.02 50 CURVE SMOOTH",
"-0.02 -10 OFFCURVE",
"35 -40 OFFCURVE",
"99.981 -40 CURVE SMOOTH"
);
},
{
closed = 1;
nodes = (
"30 0 LINE",
"30 70 LINE",
"-20 70 LINE",
"-20 0 LINE"
);
},
{
closed = 1;
nodes = (
"88.942 30 OFFCURVE",
"79.981 38.962 OFFCURVE",
"79.981 50 CURVE SMOOTH",
"79.981 61.038 OFFCURVE",
"88.942 70 OFFCURVE",
"99.981 70 CURVE SMOOTH",
"111.019 70 OFFCURVE",
"119.981 61.038 OFFCURVE",
"119.981 50 CURVE SMOOTH",
"119.981 38.962 OFFCURVE",
"111.019 30 OFFCURVE",
"99.981 30 CURVE SMOOTH"
);
},
{
closed = 1;
nodes = (
"240 0 LINE",
"240 70 LINE",
"180 70 LINE",
"180 0 LINE"
);
}
);
width = 240;
}
);
leftKerningGroup = waw;
},
{
glyphname = "meem-ar.init";
layers = (
{
layerId = "67aa4fb0-543e-4232-8202-ade6a11e0795";
paths = (
{
closed = 1;
nodes = (
"165 0 OFFCURVE",
"199.981 30 OFFCURVE",
"199.981 90 CURVE SMOOTH",
"199.981 139.672 OFFCURVE",
"155.172 180 OFFCURVE",
"99.981 180 CURVE SMOOTH",
"44.789 180 OFFCURVE",
"-0.02 140 OFFCURVE",
"-0.02 90 CURVE SMOOTH",
"-0.02 30 OFFCURVE",
"44.789 0 OFFCURVE",
"99.981 0 CURVE SMOOTH"
);
},
{
closed = 1;
nodes = (
"100 0 LINE",
"100 70 LINE",
"-20 70 LINE",
"-20 0 LINE"
);
},
{
closed = 1;
nodes = (
"88.942 70 OFFCURVE",
"79.981 78.962 OFFCURVE",
"79.981 90 CURVE SMOOTH",
"79.981 101.038 OFFCURVE",
"88.942 110 OFFCURVE",
"99.981 110 CURVE SMOOTH",
"111.019 110 OFFCURVE",
"119.981 101.038 OFFCURVE",
"119.981 90 CURVE SMOOTH",
"119.981 78.962 OFFCURVE",
"111.019 70 OFFCURVE",
"99.981 70 CURVE SMOOTH"
);
}
);
width = 240;
}
);
},
{
glyphname = "noonghunna-ar";
layers = (
{
anchors = (
{
name = top;
position = "{80, 205}";
}
);
components = (
{
name = _bowelShort;
transform = "{1, 0, 0, 1, -80, 0}";
}
);
layerId = "67aa4fb0-543e-4232-8202-ade6a11e0795";
paths = (
{
closed = 1;
nodes = (
"150 27 LINE",
"150 60 LINE",
"70 140 LINE",
"30 70 LINE",
"102 -2 LINE"
);
}
);
width = 190;
}
);
rightKerningGroup = bowel;
unicode = 06BA;
},
{
glyphname = "noonghunna-ar.fina";
layers = (
{
components = (
{
alignment = -1;
name = "noonghunna-ar";
}
);
layerId = "67aa4fb0-543e-4232-8202-ade6a11e0795";
paths = (
{
closed = 1;
nodes = (
"190 0 LINE",
"190 70 LINE",
"90 70 LINE",
"90 0 LINE"
);
}
);
width = 190;
}
);
leftKerningGroup = waw;
rightKerningGroup = bowel;
},
{
glyphname = "heh-ar";
layers = (
{
anchors = (
{
name = top;
position = "{100, 235}";
}
);
layerId = "67aa4fb0-543e-4232-8202-ade6a11e0795";
paths = (
{
closed = 1;
nodes = (
"165 0 OFFCURVE",
"199.981 30 OFFCURVE",
"199.981 90 CURVE SMOOTH",
"199.981 139.672 OFFCURVE",
"155.172 180 OFFCURVE",
"99.981 180 CURVE SMOOTH",
"44.789 180 OFFCURVE",
"-0.02 140 OFFCURVE",
"-0.02 90 CURVE SMOOTH",
"-0.02 30 OFFCURVE",
"44.789 0 OFFCURVE",
"99.981 0 CURVE SMOOTH"
);
},
{
closed = 1;
nodes = (
"88.964 70 OFFCURVE",
"80.003 78.962 OFFCURVE",
"80.003 90 CURVE SMOOTH",
"80.003 101.038 OFFCURVE",
"88.964 110 OFFCURVE",
"100.003 110 CURVE SMOOTH",
"111.041 110 OFFCURVE",
"120.003 101.038 OFFCURVE",
"120.003 90 CURVE SMOOTH",
"120.003 78.962 OFFCURVE",
"111.041 70 OFFCURVE",
"100.003 70 CURVE SMOOTH"
);
},
{
closed = 1;
nodes = (
"200.011 220.011 LINE",
"180.011 185.011 OFFCURVE",
"140 180.031 OFFCURVE",
"100 180.031 CURVE",
"200.011 90 LINE"
);
}
);
width = 240;
}
);
unicode = 0647;
},
{
glyphname = "heh-ar.1";
layers = (
{
anchors = (
{
name = top;
position = "{100, 405}";
}
);
components = (
{
name = "heh-ar";
}
);
layerId = "67aa4fb0-543e-4232-8202-ade6a11e0795";
paths = (
{
closed = 1;
nodes = (
"200 110 LINE",
"200 330 LINE",
"120 310 LINE",
"120 110 LINE"
);
}
);
width = 240;
}
);
},
{
glyphname = "heh-ar.2";
layers = (
{
anchors = (
{
name = top;
position = "{50, 318}";
}
);
components = (
{
name = "heh-ar.1";
}
);
layerId = "67aa4fb0-543e-4232-8202-ade6a11e0795";
paths = (
{
closed = 1;
nodes = (
"200 290 LINE",
"200 560 LINE",
"120 540 LINE",
"120 290 LINE"
);
}
);
width = 240;
}
);
},
{
glyphname = "heh-ar.fina";
layers = (
{
components = (
{
alignment = -1;
name = "heh-ar";
}
);
layerId = "67aa4fb0-543e-4232-8202-ade6a11e0795";
paths = (
{
closed = 1;
nodes = (
"200 10 LINE",
"200 150 LINE",
"120 150 LINE",
"120 10 LINE"
);
},
{
closed = 1;
nodes = (
"240 0 LINE",
"240 70 LINE",
"100 70 LINE",
"100 0 LINE"
);
}
);
width = 240;
}
);
},
{
glyphname = "heh-ar.fina.1";
layers = (
{
components = (
{
alignment = -1;
name = "heh-ar.1";
}
);
layerId = "67aa4fb0-543e-4232-8202-ade6a11e0795";
paths = (
{
closed = 1;
nodes = (
"200 10 LINE",
"200 150 LINE",
"120 150 LINE",
"120 10 LINE"
);
},
{
closed = 1;
nodes = (
"240 0 LINE",
"240 70 LINE",
"100 70 LINE",
"100 0 LINE"
);
}
);
width = 240;
}
);
},
{
glyphname = "heh-ar.fina.2";
layers = (
{
components = (
{
alignment = -1;
name = "heh-ar.2";
}
);
layerId = "67aa4fb0-543e-4232-8202-ade6a11e0795";
paths = (
{
closed = 1;
nodes = (
"200 10 LINE",
"200 150 LINE",
"120 150 LINE",
"120 10 LINE"
);
},
{
closed = 1;
nodes = (
"240 0 LINE",
"240 70 LINE",
"100 70 LINE",
"100 0 LINE"
);
}
);
width = 240;
}
);
},
{
glyphname = "heh-ar.medi";
layers = (
{
components = (
{
alignment = -1;
name = "heh-ar.init";
}
);
layerId = "67aa4fb0-543e-4232-8202-ade6a11e0795";
paths = (
{
closed = 1;
nodes = (
"240 0 LINE",
"240 70 LINE",
"80 70 LINE",
"80 0 LINE"
);
}
);
width = 240;
}
);
},
{
glyphname = "heh-ar.medi.1";
layers = (
{
components = (
{
alignment = -1;
name = "heh-ar.init.1";
}
);
layerId = "67aa4fb0-543e-4232-8202-ade6a11e0795";
paths = (
{
closed = 1;
nodes = (
"240 0 LINE",
"240 70 LINE",
"80 70 LINE",
"80 0 LINE"
);
}
);
width = 240;
}
);
},
{
glyphname = "heh-ar.medi.2";
layers = (
{
components = (
{
alignment = -1;
name = "heh-ar.init.2";
}
);
layerId = "67aa4fb0-543e-4232-8202-ade6a11e0795";
paths = (
{
closed = 1;
nodes = (
"240 0 LINE",
"240 70 LINE",
"80 70 LINE",
"80 0 LINE"
);
}
);
width = 240;
}
);
},
{
glyphname = "heh-ar.medi.3";
layers = (
{
components = (
{
alignment = -1;
name = "heh-ar.init.3";
}
);
layerId = "67aa4fb0-543e-4232-8202-ade6a11e0795";
paths = (
{
closed = 1;
nodes = (
"240 0 LINE",
"240 70 LINE",
"80 70 LINE",
"80 0 LINE"
);
}
);
width = 240;
}
);
},
{
glyphname = "heh-ar.medi.4";
layers = (
{
components = (
{
alignment = -1;
name = "heh-ar.init.4";
}
);
layerId = "67aa4fb0-543e-4232-8202-ade6a11e0795";
paths = (
{
closed = 1;
nodes = (
"240 0 LINE",
"240 70 LINE",
"80 70 LINE",
"80 0 LINE"
);
}
);
width = 240;
}
);
},
{
glyphname = "heh-ar.medi.5";
layers = (
{
components = (
{
alignment = -1;
name = "heh-ar.init.7";
}
);
layerId = "67aa4fb0-543e-4232-8202-ade6a11e0795";
paths = (
{
closed = 1;
nodes = (
"240 0 LINE",
"240 70 LINE",
"80 70 LINE",
"80 0 LINE"
);
}
);
width = 240;
}
);
},
{
glyphname = "heh-ar.medi.6";
layers = (
{
components = (
{
alignment = -1;
name = "heh-ar.init.6";
}
);
layerId = "67aa4fb0-543e-4232-8202-ade6a11e0795";
paths = (
{
closed = 1;
nodes = (
"240 0 LINE",
"240 70 LINE",
"80 70 LINE",
"80 0 LINE"
);
}
);
width = 240;
}
);
},
{
glyphname = "heh-ar.medi.7";
layers = (
{
components = (
{
alignment = -1;
name = "heh-ar.init.7";
}
);
layerId = "67aa4fb0-543e-4232-8202-ade6a11e0795";
paths = (
{
closed = 1;
nodes = (
"240 0 LINE",
"240 70 LINE",
"80 70 LINE",
"80 0 LINE"
);
}
);
width = 240;
}
);
},
{
glyphname = "heh-ar.init";
layers = (
{
layerId = "67aa4fb0-543e-4232-8202-ade6a11e0795";
paths = (
{
closed = 1;
nodes = (
"165 0 OFFCURVE",
"199.981 30 OFFCURVE",
"199.981 90 CURVE SMOOTH",
"199.981 139.672 OFFCURVE",
"155.172 180 OFFCURVE",
"99.981 180 CURVE SMOOTH",
"44.789 180 OFFCURVE",
"-0.02 140 OFFCURVE",
"-0.02 90 CURVE SMOOTH",
"-0.02 30 OFFCURVE",
"44.789 0 OFFCURVE",
"99.981 0 CURVE SMOOTH"
);
},
{
closed = 1;
nodes = (
"165 -110 OFFCURVE",
"199.981 -80 OFFCURVE",
"199.981 -20 CURVE SMOOTH",
"199.981 29.672 OFFCURVE",
"155.172 70 OFFCURVE",
"99.981 70 CURVE SMOOTH",
"44.789 70 OFFCURVE",
"-0.02 30 OFFCURVE",
"-0.02 -20 CURVE SMOOTH",
"-0.02 -80 OFFCURVE",
"44.789 -110 OFFCURVE",
"99.981 -110 CURVE SMOOTH"
);
},
{
closed = 1;
nodes = (
"88.964 -40 OFFCURVE",
"80.003 -31.038 OFFCURVE",
"80.003 -20 CURVE SMOOTH",
"80.003 -8.962 OFFCURVE",
"88.964 0 OFFCURVE",
"100.003 0 CURVE SMOOTH",
"111.041 0 OFFCURVE",
"120.003 -8.962 OFFCURVE",
"120.003 -20 CURVE SMOOTH",
"120.003 -31.038 OFFCURVE",
"111.041 -40 OFFCURVE",
"100.003 -40 CURVE SMOOTH"
);
},
{
closed = 1;
nodes = (
"140 0 LINE",
"140 70 LINE",
"-50 70 LINE",
"-50 0 LINE"
);
},
{
closed = 1;
nodes = (
"88.964 70 OFFCURVE",
"80.003 78.962 OFFCURVE",
"80.003 90 CURVE SMOOTH",
"80.003 101.038 OFFCURVE",
"88.964 110 OFFCURVE",
"100.003 110 CURVE SMOOTH",
"111.041 110 OFFCURVE",
"120.003 101.038 OFFCURVE",
"120.003 90 CURVE SMOOTH",
"120.003 78.962 OFFCURVE",
"111.041 70 OFFCURVE",
"100.003 70 CURVE SMOOTH"
);
},
{
closed = 1;
nodes = (
"200.011 215 LINE",
"180.011 180 OFFCURVE",
"140 180.031 OFFCURVE",
"100 180.031 CURVE",
"200.011 -20 LINE"
);
}
);
width = 240;
}
);
rightKerningGroup = heh.init;
},
{
glyphname = "heh-ar.init.1";
layers = (
{
components = (
{
alignment = -1;
name = "heh-ar.init";
}
);
layerId = "67aa4fb0-543e-4232-8202-ade6a11e0795";
paths = (
{
closed = 1;
nodes = (
"200 191 LINE",
"200 251 LINE",
"120 231 LINE",
"120 160 LINE"
);
}
);
width = 240;
}
);
rightKerningGroup = heh.init;
},
{
glyphname = "heh-ar.init.2";
layers = (
{
layerId = "67aa4fb0-543e-4232-8202-ade6a11e0795";
paths = (
{
closed = 1;
nodes = (
"189.761 93.904 OFFCURVE",
"199.981 117.57 OFFCURVE",
"199.981 150 CURVE SMOOTH",
"199.981 199.672 OFFCURVE",
"155.172 240 OFFCURVE",
"99.981 240 CURVE SMOOTH",
"44.789 240 OFFCURVE",
"-0.02 199.672 OFFCURVE",
"-0.02 150 CURVE SMOOTH",
"-0.02 124.829 OFFCURVE",
"11.487 102.057 OFFCURVE",
"30.02 85.717 CURVE SMOOTH",
"48.06 69.812 OFFCURVE",
"72.776 114.626 OFFCURVE",
"100 114.626 CURVE SMOOTH",
"129.876 114.626 OFFCURVE",
"153.391 66.334 OFFCURVE",
"170.103 79.002 CURVE SMOOTH"
);
},
{
closed = 1;
nodes = (
"130 0 LINE",
"130 70 LINE",
"-20 70 LINE",
"-20 0 LINE"
);
},
{
closed = 1;
nodes = (
"165 0 OFFCURVE",
"199.981 30 OFFCURVE",
"199.981 90 CURVE SMOOTH",
"199.981 115.098 OFFCURVE",
"188.541 137.81 OFFCURVE",
"170.103 154.14 CURVE SMOOTH",
"152.049 170.129 OFFCURVE",
"127.305 125 OFFCURVE",
"100 125 CURVE SMOOTH",
"72.695 125 OFFCURVE",
"47.911 170.129 OFFCURVE",
"29.858 154.14 CURVE SMOOTH",
"11.42 137.81 OFFCURVE",
"-0.019 115.098 OFFCURVE",
"-0.02 90 CURVE SMOOTH",
"-0.02 40.328 OFFCURVE",
"44.789 0 OFFCURVE",
"99.981 0 CURVE SMOOTH"
);
},
{
closed = 1;
nodes = (
"88.964 70 OFFCURVE",
"80.003 78.962 OFFCURVE",
"80.003 90 CURVE SMOOTH",
"80.003 101.038 OFFCURVE",
"88.964 110 OFFCURVE",
"100.003 110 CURVE SMOOTH",
"111.041 110 OFFCURVE",
"120.003 101.038 OFFCURVE",
"120.003 90 CURVE SMOOTH",
"120.003 78.962 OFFCURVE",
"111.041 70 OFFCURVE",
"100.003 70 CURVE SMOOTH"
);
},
{
closed = 1;
nodes = (
"88.964 130 OFFCURVE",
"80.003 138.962 OFFCURVE",
"80.003 150 CURVE SMOOTH",
"80.003 161.038 OFFCURVE",
"88.964 170 OFFCURVE",
"100.003 170 CURVE SMOOTH",
"111.041 170 OFFCURVE",
"120.003 161.038 OFFCURVE",
"120.003 150 CURVE SMOOTH",
"120.003 138.962 OFFCURVE",
"111.041 130 OFFCURVE",
"100.003 130 CURVE SMOOTH"
);
},
{
closed = 1;
nodes = (
"179 0 LINE",
"185 0 OFFCURVE",
"200 0 OFFCURVE",
"200 11 CURVE",
"200 230 LINE",
"120 210 LINE",
"120 70 LINE",
"100 70 LINE",
"100 0 LINE"
);
},
{
closed = 1;
nodes = (
"200.011 275 LINE",
"180.011 240 OFFCURVE",
"140 240.031 OFFCURVE",
"100 240.031 CURVE",
"200.011 40 LINE"
);
}
);
width = 240;
}
);
},
{
glyphname = "heh-ar.init.3";
layers = (
{
components = (
{
alignment = -1;
name = "heh-ar.init.2";
}
);
layerId = "67aa4fb0-543e-4232-8202-ade6a11e0795";
paths = (
{
closed = 1;
nodes = (
"200 251 LINE",
"200 310 LINE",
"120 290 LINE",
"120 220 LINE"
);
}
);
width = 240;
}
);
},
{
glyphname = "heh-ar.init.4";
layers = (
{
layerId = "67aa4fb0-543e-4232-8202-ade6a11e0795";
paths = (
{
closed = 1;
nodes = (
"167 50 LINE",
"186.166 64.529 OFFCURVE",
"199.981 96.871 OFFCURVE",
"199.981 125.215 CURVE SMOOTH",
"199.981 172.974 OFFCURVE",
"160.759 220 OFFCURVE",
"120 220 CURVE SMOOTH",
"54.928 220 OFFCURVE",
"-2.055 187.575 OFFCURVE",
"-2.055 116.161 CURVE SMOOTH",
"-2.055 83.147 OFFCURVE",
"10.288 59.268 OFFCURVE",
"24 50 CURVE"
);
},
{
closed = 1;
nodes = (
"130 0 LINE",
"130 70 LINE",
"-20 70 LINE",
"-20 0 LINE"
);
},
{
closed = 1;
nodes = (
"98.967 70 OFFCURVE",
"82.003 85.862 OFFCURVE",
"80 106 CURVE",
"100.637 106 OFFCURVE",
"117.601 90.138 OFFCURVE",
"119.604 70 CURVE"
);
},
{
closed = 1;
nodes = (
"82.003 134.138 OFFCURVE",
"98.967 150 OFFCURVE",
"119.604 150 CURVE",
"117.601 129.862 OFFCURVE",
"100.637 114 OFFCURVE",
"80 114 CURVE"
);
},
{
closed = 1;
nodes = (
"179 0 LINE",
"185 0 OFFCURVE",
"200 0 OFFCURVE",
"200 11 CURVE",
"200 220 LINE",
"120 200 LINE",
"120 70 LINE",
"100 70 LINE",
"100 0 LINE"
);
},
{
closed = 1;
nodes = (
"200.011 255 LINE",
"180.011 220 OFFCURVE",
"160 220.031 OFFCURVE",
"120 220.031 CURVE",
"200.011 20 LINE"
);
}
);
width = 240;
}
);
},
{
glyphname = "heh-ar.init.5";
layers = (
{
components = (
{
alignment = -1;
name = "heh-ar.init.4";
}
);
layerId = "67aa4fb0-543e-4232-8202-ade6a11e0795";
paths = (
{
closed = 1;
nodes = (
"200 231 LINE",
"200 290 LINE",
"120 270 LINE",
"120 200 LINE"
);
}
);
width = 240;
}
);
},
{
glyphname = "heh-ar.init.6";
layers = (
{
layerId = "67aa4fb0-543e-4232-8202-ade6a11e0795";
paths = (
{
closed = 1;
nodes = (
"167 50 LINE",
"186.166 64.529 OFFCURVE",
"199.981 96.871 OFFCURVE",
"199.981 125.215 CURVE SMOOTH",
"199.981 172.974 OFFCURVE",
"160.759 220 OFFCURVE",
"120 220 CURVE SMOOTH",
"45.762 220 OFFCURVE",
"-2 180.487 OFFCURVE",
"-2 116.67 CURVE SMOOTH",
"-2 85 OFFCURVE",
"9.762 59.623 OFFCURVE",
"24 50 CURVE"
);
},
{
closed = 1;
nodes = (
"130 0 LINE",
"130 70 LINE",
"-20 70 LINE",
"-20 0 LINE"
);
},
{
closed = 1;
nodes = (
"80.003 104 LINE",
"120.003 114 LINE",
"110.501 70 LINE"
);
},
{
closed = 1;
nodes = (
"89.504 160 LINE",
"120.003 126 LINE",
"80.003 116 LINE"
);
},
{
closed = 1;
nodes = (
"179 0 LINE",
"185 0 OFFCURVE",
"200 0 OFFCURVE",
"200 11 CURVE",
"200 200 LINE",
"120 180 LINE",
"120 70 LINE",
"100 70 LINE",
"100 0 LINE"
);
},
{
closed = 1;
nodes = (
"200.011 255 LINE",
"180.011 220 OFFCURVE",
"160 220.031 OFFCURVE",
"120 220.031 CURVE",
"200.011 20 LINE"
);
}
);
width = 240;
}
);
},
{
glyphname = "heh-ar.init.7";
layers = (
{
components = (
{
alignment = -1;
name = "heh-ar.init.6";
}
);
layerId = "67aa4fb0-543e-4232-8202-ade6a11e0795";
paths = (
{
closed = 1;
nodes = (
"200 231 LINE",
"200 290 LINE",
"120 270 LINE",
"120 200 LINE"
);
}
);
width = 240;
}
);
},
{
glyphname = "waw-ar";
layers = (
{
anchors = (
{
name = top;
position = "{129, 230}";
}
);
layerId = "67aa4fb0-543e-4232-8202-ade6a11e0795";
paths = (
{
closed = 1;
nodes = (
"193 -110 LINE SMOOTH",
"223.562 -110 OFFCURVE",
"232.876 -96.366 OFFCURVE",
"238.317 -71.724 CURVE SMOOTH",
"242 -55.045 OFFCURVE",
"243.289 -33.175 OFFCURVE",
"243.289 -6.631 CURVE SMOOTH",
"243.289 29.071 OFFCURVE",
"239.37 65.502 OFFCURVE",
"232.697 90.676 CURVE SMOOTH",
"217.713 147.202 OFFCURVE",
"180.091 180 OFFCURVE",
"130.158 180 CURVE SMOOTH",
"74.789 180 OFFCURVE",
"29.981 139.672 OFFCURVE",
"29.981 90 CURVE SMOOTH",
"29.981 40.328 OFFCURVE",
"74.789 0 OFFCURVE",
"129.976 0 CURVE SMOOTH",
"140.259 0 OFFCURVE",
"150.391 1.4 OFFCURVE",
"160.105 4.162 CURVE",
"161.509 -3.247 OFFCURVE",
"162.265 -10.726 OFFCURVE",
"162.265 -18.199 CURVE SMOOTH",
"162.265 -25.496 OFFCURVE",
"161.544 -32.786 OFFCURVE",
"160 -40 CURVE",
"10 -40 LINE",
"10 -110 LINE"
);
},
{
closed = 1;
nodes = (
"130 -110 LINE",
"130 -40 LINE",
"50 -40 LINE SMOOTH",
"27.559 -40 OFFCURVE",
"12.149 -33.182 OFFCURVE",
"2 -20 CURVE",
"-50 -110 LINE"
);
},
{
closed = 1;
nodes = (
"118.964 70 OFFCURVE",
"110.003 78.962 OFFCURVE",
"110.003 90 CURVE SMOOTH",
"110.003 101.038 OFFCURVE",
"118.964 110 OFFCURVE",
"130.003 110 CURVE SMOOTH",
"141.041 110 OFFCURVE",
"150.003 101.038 OFFCURVE",
"150.003 90 CURVE SMOOTH",
"150.003 78.962 OFFCURVE",
"141.041 70 OFFCURVE",
"130.003 70 CURVE SMOOTH"
);
}
);
width = 270;
}
);
rightKerningGroup = waw;
unicode = 0648;
},
{
glyphname = "waw-ar.1";
layers = (
{
anchors = (
{
name = top;
position = "{129, 230}";
}
);
layerId = "67aa4fb0-543e-4232-8202-ade6a11e0795";
paths = (
{
closed = 1;
nodes = (
"192 -110 LINE SMOOTH",
"215 -110 OFFCURVE",
"230 -95 OFFCURVE",
"230 -70 CURVE SMOOTH",
"230 90 LINE",
"150 100 LINE",
"150 -40 LINE",
"10 -40 LINE",
"10 -110 LINE"
);
},
{
closed = 1;
nodes = (
"130 -110 LINE",
"130 -40 LINE",
"50 -40 LINE",
"27.559 -40 OFFCURVE",
"12.149 -33.182 OFFCURVE",
"2 -20 CURVE",
"-50 -110 LINE"
);
},
{
closed = 1;
nodes = (
"185.172 0 OFFCURVE",
"229.981 40.328 OFFCURVE",
"229.981 90 CURVE SMOOTH",
"229.981 139.672 OFFCURVE",
"185.172 180 OFFCURVE",
"129.981 180 CURVE SMOOTH",
"74.789 180 OFFCURVE",
"29.98 139.672 OFFCURVE",
"29.98 90 CURVE SMOOTH",
"29.98 40.328 OFFCURVE",
"74.789 0 OFFCURVE",
"129.981 0 CURVE SMOOTH"
);
},
{
closed = 1;
nodes = (
"118.964 70 OFFCURVE",
"110.003 78.962 OFFCURVE",
"110.003 90 CURVE SMOOTH",
"110.003 101.038 OFFCURVE",
"118.964 110 OFFCURVE",
"130.003 110 CURVE SMOOTH",
"141.041 110 OFFCURVE",
"150.003 101.038 OFFCURVE",
"150.003 90 CURVE SMOOTH",
"150.003 78.962 OFFCURVE",
"141.041 70 OFFCURVE",
"130.003 70 CURVE SMOOTH"
);
}
);
width = 270;
}
);
rightKerningGroup = waw;
},
{
glyphname = "waw-ar.fina";
layers = (
{
components = (
{
alignment = -1;
name = "waw-ar";
}
);
layerId = "67aa4fb0-543e-4232-8202-ade6a11e0795";
paths = (
{
closed = 1;
nodes = (
"280 0 LINE",
"280 70 LINE",
"180 70 LINE",
"180 0 LINE"
);
}
);
width = 280;
}
);
leftKerningGroup = waw;
rightKerningGroup = waw;
},
{
glyphname = "waw-ar.fina.1";
layers = (
{
components = (
{
alignment = -1;
name = "waw-ar.1";
}
);
layerId = "67aa4fb0-543e-4232-8202-ade6a11e0795";
paths = (
{
closed = 1;
nodes = (
"270 0 LINE",
"270 70 LINE",
"170 70 LINE",
"170 0 LINE"
);
}
);
width = 270;
}
);
leftKerningGroup = waw;
rightKerningGroup = waw;
},
{
glyphname = "alefMaksura-ar";
layers = (
{
anchors = (
{
name = bottom;
position = "{87, -250}";
},
{
name = top;
position = "{57, 198}";
}
);
guideLines = (
{
position = "{-33, 155}";
},
{
position = "{-33, -110}";
},
{
position = "{-33, 70}";
}
);
layerId = "67aa4fb0-543e-4232-8202-ade6a11e0795";
paths = (
{
closed = 1;
nodes = (
"159 -43 LINE",
"127 -43 OFFCURVE",
"105 -37 OFFCURVE",
"82 -14 CURVE SMOOTH",
"51 17 LINE SMOOTH",
"34 34 OFFCURVE",
"43 81 OFFCURVE",
"57 67 CURVE SMOOTH",
"109 15 LINE SMOOTH",
"119 5 OFFCURVE",
"128 0 OFFCURVE",
"140 0 CURVE SMOOTH",
"156 0 OFFCURVE",
"192 10 OFFCURVE",
"202 90 CURVE",
"199 75 OFFCURVE",
"185 70 OFFCURVE",
"176 70 CURVE SMOOTH",
"167 70 OFFCURVE",
"162 75 OFFCURVE",
"158 79 CURVE SMOOTH",
"94 143 LINE SMOOTH",
"44 193 OFFCURVE",
"0 44 OFFCURVE",
"0 -5 CURVE SMOOTH",
"0 -92 OFFCURVE",
"60 -110 OFFCURVE",
"137 -110 CURVE"
);
},
{
closed = 1;
nodes = (
"169 -220 LINE SMOOTH",
"192 -220 OFFCURVE",
"207 -205 OFFCURVE",
"207 -180 CURVE SMOOTH",
"207 -84 LINE SMOOTH",
"207 -59 OFFCURVE",
"194 -43 OFFCURVE",
"159 -43 CURVE",
"127 -104 LINE",
"127 -150 LINE",
"67 -150 LINE SMOOTH",
"47 -150 OFFCURVE",
"30 -145 OFFCURVE",
"19 -130 CURVE",
"-33 -220 LINE"
);
}
);
width = 247;
}
);
unicode = 0649;
},
{
glyphname = "alefMaksura-ar.1";
layers = (
{
anchors = (
{
name = bottom;
position = "{87, -280}";
},
{
name = top;
position = "{57, 198}";
}
);
guideLines = (
{
position = "{-33, 155}";
},
{
position = "{-33, -110}";
},
{
position = "{-33, 70}";
}
);
layerId = "67aa4fb0-543e-4232-8202-ade6a11e0795";
paths = (
{
closed = 1;
nodes = (
"159 -43 LINE",
"127 -43 OFFCURVE",
"105 -37 OFFCURVE",
"82 -14 CURVE SMOOTH",
"51 17 LINE SMOOTH",
"34 34 OFFCURVE",
"43 81 OFFCURVE",
"57 67 CURVE SMOOTH",
"109 15 LINE SMOOTH",
"119 5 OFFCURVE",
"128 0 OFFCURVE",
"140 0 CURVE SMOOTH",
"156 0 OFFCURVE",
"192 10 OFFCURVE",
"202 90 CURVE",
"199 75 OFFCURVE",
"185 70 OFFCURVE",
"176 70 CURVE SMOOTH",
"167 70 OFFCURVE",
"162 75 OFFCURVE",
"158 79 CURVE SMOOTH",
"94 143 LINE SMOOTH",
"44 193 OFFCURVE",
"0 44 OFFCURVE",
"0 -5 CURVE SMOOTH",
"0 -92 OFFCURVE",
"60 -110 OFFCURVE",
"137 -110 CURVE"
);
},
{
closed = 1;
nodes = (
"169 -250 LINE SMOOTH",
"192 -250 OFFCURVE",
"207 -235 OFFCURVE",
"207 -210 CURVE SMOOTH",
"207 -84 LINE SMOOTH",
"207 -59 OFFCURVE",
"194 -43 OFFCURVE",
"159 -43 CURVE",
"127 -104 LINE",
"127 -180 LINE",
"67 -180 LINE SMOOTH",
"47 -180 OFFCURVE",
"30 -175 OFFCURVE",
"19 -160 CURVE",
"-33 -250 LINE"
);
}
);
width = 247;
}
);
},
{
glyphname = "alefMaksura-ar.2";
layers = (
{
anchors = (
{
name = bottom;
position = "{239, -135}";
},
{
name = top;
position = "{57, 198}";
}
);
guideLines = (
{
position = "{-33, 155}";
},
{
position = "{-33, -110}";
},
{
position = "{-33, 70}";
}
);
layerId = "67aa4fb0-543e-4232-8202-ade6a11e0795";
paths = (
{
closed = 1;
nodes = (
"149 -40 LINE",
"117 -40 OFFCURVE",
"105 -37 OFFCURVE",
"82 -14 CURVE SMOOTH",
"51 17 LINE SMOOTH",
"34 34 OFFCURVE",
"43 81 OFFCURVE",
"57 67 CURVE SMOOTH",
"109 15 LINE SMOOTH",
"119 5 OFFCURVE",
"128 0 OFFCURVE",
"140 0 CURVE SMOOTH",
"156 0 OFFCURVE",
"192 10 OFFCURVE",
"202 90 CURVE",
"199 75 OFFCURVE",
"185 70 OFFCURVE",
"176 70 CURVE SMOOTH",
"167 70 OFFCURVE",
"162 75 OFFCURVE",
"158 79 CURVE SMOOTH",
"94 143 LINE SMOOTH",
"44 193 OFFCURVE",
"0 44 OFFCURVE",
"0 -5 CURVE SMOOTH",
"0 -92 OFFCURVE",
"60 -110 OFFCURVE",
"137 -110 CURVE"
);
},
{
closed = 1;
nodes = (
"391 -110 LINE",
"432 -40 LINE",
"141 -40 LINE",
"131 -110 LINE"
);
}
);
width = 242;
}
);
},
{
glyphname = "alefMaksura-ar.3";
layers = (
{
anchors = (
{
name = bottom;
position = "{289, -135}";
},
{
name = top;
position = "{57, 198}";
}
);
guideLines = (
{
position = "{-33, 155}";
},
{
position = "{-33, -110}";
},
{
position = "{-33, 70}";
}
);
layerId = "67aa4fb0-543e-4232-8202-ade6a11e0795";
paths = (
{
closed = 1;
nodes = (
"149 -40 LINE",
"117 -40 OFFCURVE",
"105 -37 OFFCURVE",
"82 -14 CURVE SMOOTH",
"51 17 LINE SMOOTH",
"34 34 OFFCURVE",
"43 81 OFFCURVE",
"57 67 CURVE SMOOTH",
"109 15 LINE SMOOTH",
"119 5 OFFCURVE",
"128 0 OFFCURVE",
"140 0 CURVE SMOOTH",
"156 0 OFFCURVE",
"192 10 OFFCURVE",
"202 90 CURVE",
"199 75 OFFCURVE",
"185 70 OFFCURVE",
"176 70 CURVE SMOOTH",
"167 70 OFFCURVE",
"162 75 OFFCURVE",
"158 79 CURVE SMOOTH",
"94 143 LINE SMOOTH",
"44 193 OFFCURVE",
"0 44 OFFCURVE",
"0 -5 CURVE SMOOTH",
"0 -92 OFFCURVE",
"60 -110 OFFCURVE",
"137 -110 CURVE"
);
},
{
closed = 1;
nodes = (
"536 -110 LINE",
"577 -40 LINE",
"141 -40 LINE",
"131 -110 LINE"
);
}
);
width = 242;
}
);
},
{
glyphname = "alefMaksura-ar.4";
layers = (
{
anchors = (
{
name = bottom;
position = "{349, -135}";
},
{
name = top;
position = "{57, 198}";
}
);
guideLines = (
{
position = "{-33, 155}";
},
{
position = "{-33, -110}";
},
{
position = "{-33, 70}";
}
);
layerId = "67aa4fb0-543e-4232-8202-ade6a11e0795";
paths = (
{
closed = 1;
nodes = (
"149 -40 LINE",
"117 -40 OFFCURVE",
"105 -37 OFFCURVE",
"82 -14 CURVE SMOOTH",
"51 17 LINE SMOOTH",
"34 34 OFFCURVE",
"43 81 OFFCURVE",
"57 67 CURVE SMOOTH",
"109 15 LINE SMOOTH",
"119 5 OFFCURVE",
"128 0 OFFCURVE",
"140 0 CURVE SMOOTH",
"156 0 OFFCURVE",
"192 10 OFFCURVE",
"202 90 CURVE",
"199 75 OFFCURVE",
"185 70 OFFCURVE",
"176 70 CURVE SMOOTH",
"167 70 OFFCURVE",
"162 75 OFFCURVE",
"158 79 CURVE SMOOTH",
"94 143 LINE SMOOTH",
"44 193 OFFCURVE",
"0 44 OFFCURVE",
"0 -5 CURVE SMOOTH",
"0 -92 OFFCURVE",
"60 -110 OFFCURVE",
"137 -110 CURVE"
);
},
{
closed = 1;
nodes = (
"691 -110 LINE",
"732 -40 LINE",
"141 -40 LINE",
"131 -110 LINE"
);
}
);
width = 242;
}
);
},
{
glyphname = "alefMaksura-ar.5";
layers = (
{
anchors = (
{
name = bottom;
position = "{129, -135}";
},
{
name = top;
position = "{57, 198}";
}
);
guideLines = (
{
position = "{-33, 155}";
},
{
position = "{-33, -110}";
},
{
position = "{-33, 70}";
}
);
layerId = "67aa4fb0-543e-4232-8202-ade6a11e0795";
paths = (
{
closed = 1;
nodes = (
"149 -40 LINE",
"117 -40 OFFCURVE",
"105 -37 OFFCURVE",
"82 -14 CURVE SMOOTH",
"51 17 LINE SMOOTH",
"34 34 OFFCURVE",
"43 81 OFFCURVE",
"57 67 CURVE SMOOTH",
"109 15 LINE SMOOTH",
"119 5 OFFCURVE",
"128 0 OFFCURVE",
"140 0 CURVE SMOOTH",
"156 0 OFFCURVE",
"192 10 OFFCURVE",
"202 90 CURVE",
"199 75 OFFCURVE",
"185 70 OFFCURVE",
"176 70 CURVE SMOOTH",
"167 70 OFFCURVE",
"162 75 OFFCURVE",
"158 79 CURVE SMOOTH",
"94 143 LINE SMOOTH",
"44 193 OFFCURVE",
"0 44 OFFCURVE",
"0 -5 CURVE SMOOTH",
"0 -92 OFFCURVE",
"60 -110 OFFCURVE",
"137 -110 CURVE"
);
},
{
closed = 1;
nodes = (
"176 -110 LINE SMOOTH",
"207 -110 OFFCURVE",
"308 -63 OFFCURVE",
"362 -40 CURVE",
"141 -40 LINE",
"131 -110 LINE"
);
}
);
width = 242;
}
);
},
{
glyphname = "alefMaksura-ar.6";
layers = (
{
anchors = (
{
name = bottom;
position = "{289, -135}";
},
{
name = top;
position = "{57, 198}";
}
);
guideLines = (
{
position = "{-33, 155}";
},
{
position = "{-33, -110}";
},
{
position = "{-33, 70}";
}
);
layerId = "67aa4fb0-543e-4232-8202-ade6a11e0795";
paths = (
{
closed = 1;
nodes = (
"149 -40 LINE",
"117 -40 OFFCURVE",
"105 -37 OFFCURVE",
"82 -14 CURVE SMOOTH",
"51 17 LINE SMOOTH",
"34 34 OFFCURVE",
"43 81 OFFCURVE",
"57 67 CURVE SMOOTH",
"109 15 LINE SMOOTH",
"119 5 OFFCURVE",
"128 0 OFFCURVE",
"140 0 CURVE SMOOTH",
"156 0 OFFCURVE",
"192 10 OFFCURVE",
"202 90 CURVE",
"199 75 OFFCURVE",
"185 70 OFFCURVE",
"176 70 CURVE SMOOTH",
"167 70 OFFCURVE",
"162 75 OFFCURVE",
"158 79 CURVE SMOOTH",
"94 143 LINE SMOOTH",
"44 193 OFFCURVE",
"0 44 OFFCURVE",
"0 -5 CURVE SMOOTH",
"0 -92 OFFCURVE",
"60 -110 OFFCURVE",
"137 -110 CURVE"
);
},
{
closed = 1;
nodes = (
"177 -110 LINE",
"302 -110 OFFCURVE",
"560 -74 OFFCURVE",
"723 -56 CURVE",
"732 -40 LINE",
"141 -40 LINE",
"131 -110 LINE"
);
}
);
width = 242;
}
);
},
{
glyphname = "alefMaksura-ar.fina";
layers = (
{
anchors = (
{
name = bottom;
position = "{87, -250}";
},
{
name = top;
position = "{57, 198}";
}
);
guideLines = (
{
position = "{-33, 155}";
},
{
position = "{-33, -110}";
},
{
position = "{-33, 70}";
}
);
layerId = "67aa4fb0-543e-4232-8202-ade6a11e0795";
paths = (
{
closed = 1;
nodes = (
"159 -43 LINE",
"127 -43 OFFCURVE",
"105 -37 OFFCURVE",
"82 -14 CURVE SMOOTH",
"51 17 LINE SMOOTH",
"34 34 OFFCURVE",
"43 81 OFFCURVE",
"57 67 CURVE SMOOTH",
"109 15 LINE SMOOTH",
"119 5 OFFCURVE",
"128 0 OFFCURVE",
"140 0 CURVE SMOOTH",
"207 0 LINE",
"207 70 LINE",
"176 70 LINE",
"167 70 OFFCURVE",
"162 75 OFFCURVE",
"158 79 CURVE SMOOTH",
"94 143 LINE SMOOTH",
"44 193 OFFCURVE",
"0 44 OFFCURVE",
"0 -5 CURVE SMOOTH",
"0 -92 OFFCURVE",
"60 -110 OFFCURVE",
"137 -110 CURVE"
);
},
{
closed = 1;
nodes = (
"169 -220 LINE SMOOTH",
"192 -220 OFFCURVE",
"207 -205 OFFCURVE",
"207 -180 CURVE SMOOTH",
"207 -84 LINE SMOOTH",
"207 -59 OFFCURVE",
"194 -43 OFFCURVE",
"159 -43 CURVE",
"127 -104 LINE",
"127 -150 LINE",
"67 -150 LINE SMOOTH",
"47 -150 OFFCURVE",
"30 -145 OFFCURVE",
"19 -130 CURVE",
"-33 -220 LINE"
);
}
);
width = 207;
}
);
leftKerningGroup = yeh;
},
{
glyphname = "alefMaksura-ar.fina.1";
layers = (
{
anchors = (
{
name = bottom;
position = "{87, -280}";
},
{
name = top;
position = "{57, 198}";
}
);
guideLines = (
{
position = "{-33, 155}";
},
{
position = "{-33, -110}";
},
{
position = "{-33, 70}";
}
);
layerId = "67aa4fb0-543e-4232-8202-ade6a11e0795";
paths = (
{
closed = 1;
nodes = (
"159 -43 LINE",
"127 -43 OFFCURVE",
"105 -37 OFFCURVE",
"82 -14 CURVE SMOOTH",
"51 17 LINE SMOOTH",
"34 34 OFFCURVE",
"43 81 OFFCURVE",
"57 67 CURVE SMOOTH",
"109 15 LINE SMOOTH",
"119 5 OFFCURVE",
"128 0 OFFCURVE",
"140 0 CURVE SMOOTH",
"207 0 LINE",
"207 70 LINE",
"176 70 LINE",
"167 70 OFFCURVE",
"162 75 OFFCURVE",
"158 79 CURVE SMOOTH",
"94 143 LINE SMOOTH",
"44 193 OFFCURVE",
"0 44 OFFCURVE",
"0 -5 CURVE SMOOTH",
"0 -92 OFFCURVE",
"60 -110 OFFCURVE",
"137 -110 CURVE"
);
},
{
closed = 1;
nodes = (
"169 -250 LINE SMOOTH",
"192 -250 OFFCURVE",
"207 -235 OFFCURVE",
"207 -210 CURVE SMOOTH",
"207 -84 LINE SMOOTH",
"207 -59 OFFCURVE",
"194 -43 OFFCURVE",
"159 -43 CURVE",
"127 -104 LINE",
"127 -180 LINE",
"67 -180 LINE SMOOTH",
"47 -180 OFFCURVE",
"30 -175 OFFCURVE",
"19 -160 CURVE",
"-33 -250 LINE"
);
}
);
width = 207;
}
);
leftKerningGroup = yeh;
},
{
glyphname = "alefMaksura-ar.fina.2";
layers = (
{
anchors = (
{
name = bottom;
position = "{239, -135}";
},
{
name = top;
position = "{57, 198}";
}
);
guideLines = (
{
position = "{-33, 155}";
},
{
position = "{-33, -110}";
},
{
position = "{-33, 70}";
},
{
position = "{-33, -110}";
}
);
layerId = "67aa4fb0-543e-4232-8202-ade6a11e0795";
paths = (
{
closed = 1;
nodes = (
"159 -40 LINE",
"127 -40 OFFCURVE",
"105 -37 OFFCURVE",
"82 -14 CURVE SMOOTH",
"51 17 LINE SMOOTH",
"34 34 OFFCURVE",
"43 81 OFFCURVE",
"57 67 CURVE SMOOTH",
"109 15 LINE SMOOTH",
"119 5 OFFCURVE",
"128 0 OFFCURVE",
"140 0 CURVE SMOOTH",
"207 0 LINE",
"207 70 LINE",
"176 70 LINE",
"167 70 OFFCURVE",
"162 75 OFFCURVE",
"158 79 CURVE SMOOTH",
"94 143 LINE SMOOTH",
"44 193 OFFCURVE",
"0 44 OFFCURVE",
"0 -5 CURVE SMOOTH",
"0 -92 OFFCURVE",
"60 -110 OFFCURVE",
"137 -110 CURVE"
);
},
{
closed = 1;
nodes = (
"391 -110 LINE",
"432 -40 LINE",
"141 -40 LINE",
"131 -110 LINE"
);
}
);
width = 207;
}
);
leftKerningGroup = yeh;
},
{
glyphname = "alefMaksura-ar.fina.3";
layers = (
{
anchors = (
{
name = bottom;
position = "{289, -135}";
},
{
name = top;
position = "{57, 198}";
}
);
guideLines = (
{
position = "{-33, 155}";
},
{
position = "{-33, -110}";
},
{
position = "{-33, 70}";
},
{
position = "{-33, -110}";
}
);
layerId = "67aa4fb0-543e-4232-8202-ade6a11e0795";
paths = (
{
closed = 1;
nodes = (
"159 -40 LINE",
"127 -40 OFFCURVE",
"105 -37 OFFCURVE",
"82 -14 CURVE SMOOTH",
"51 17 LINE SMOOTH",
"34 34 OFFCURVE",
"43 81 OFFCURVE",
"57 67 CURVE SMOOTH",
"109 15 LINE SMOOTH",
"119 5 OFFCURVE",
"128 0 OFFCURVE",
"140 0 CURVE SMOOTH",
"207 0 LINE",
"207 70 LINE",
"176 70 LINE",
"167 70 OFFCURVE",
"162 75 OFFCURVE",
"158 79 CURVE SMOOTH",
"94 143 LINE SMOOTH",
"44 193 OFFCURVE",
"0 44 OFFCURVE",
"0 -5 CURVE SMOOTH",
"0 -92 OFFCURVE",
"60 -110 OFFCURVE",
"137 -110 CURVE"
);
},
{
closed = 1;
nodes = (
"536 -110 LINE",
"577 -40 LINE",
"141 -40 LINE",
"131 -110 LINE"
);
}
);
width = 207;
}
);
leftKerningGroup = yeh;
},
{
glyphname = "alefMaksura-ar.fina.4";
layers = (
{
anchors = (
{
name = bottom;
position = "{349, -135}";
},
{
name = top;
position = "{57, 198}";
}
);
guideLines = (
{
position = "{-33, 155}";
},
{
position = "{-33, -110}";
},
{
position = "{-33, 70}";
},
{
position = "{-33, -110}";
}
);
layerId = "67aa4fb0-543e-4232-8202-ade6a11e0795";
paths = (
{
closed = 1;
nodes = (
"159 -40 LINE",
"127 -40 OFFCURVE",
"105 -37 OFFCURVE",
"82 -14 CURVE SMOOTH",
"51 17 LINE SMOOTH",
"34 34 OFFCURVE",
"43 81 OFFCURVE",
"57 67 CURVE SMOOTH",
"109 15 LINE SMOOTH",
"119 5 OFFCURVE",
"128 0 OFFCURVE",
"140 0 CURVE SMOOTH",
"207 0 LINE",
"207 70 LINE",
"176 70 LINE",
"167 70 OFFCURVE",
"162 75 OFFCURVE",
"158 79 CURVE SMOOTH",
"94 143 LINE SMOOTH",
"44 193 OFFCURVE",
"0 44 OFFCURVE",
"0 -5 CURVE SMOOTH",
"0 -92 OFFCURVE",
"60 -110 OFFCURVE",
"137 -110 CURVE"
);
},
{
closed = 1;
nodes = (
"691 -110 LINE",
"732 -40 LINE",
"141 -40 LINE",
"131 -110 LINE"
);
}
);
width = 207;
},
{
anchors = (
{
name = bottom;
position = "{322, -135}";
},
{
name = top;
position = "{90, 198}";
}
);
associatedMasterId = "67aa4fb0-543e-4232-8202-ade6a11e0795";
guideLines = (
{
position = "{0, 155}";
},
{
position = "{0, -110}";
},
{
position = "{0, 70}";
},
{
position = "{0, -110}";
}
);
layerId = "E43493D8-6AC9-41F0-9706-E72D315EB2F6";
name = "Mar 9 20, 21:08";
paths = (
{
closed = 1;
nodes = (
"192 -40 LINE",
"160 -40 OFFCURVE",
"138 -37 OFFCURVE",
"115 -14 CURVE SMOOTH",
"84 17 LINE SMOOTH",
"67 34 OFFCURVE",
"76 81 OFFCURVE",
"90 67 CURVE SMOOTH",
"142 15 LINE SMOOTH",
"152 5 OFFCURVE",
"161 0 OFFCURVE",
"173 0 CURVE SMOOTH",
"240 0 LINE",
"240 70 LINE",
"209 70 LINE",
"200 70 OFFCURVE",
"195 75 OFFCURVE",
"191 79 CURVE SMOOTH",
"127 143 LINE SMOOTH",
"77 193 OFFCURVE",
"33 44 OFFCURVE",
"33 -5 CURVE SMOOTH",
"33 -92 OFFCURVE",
"93 -110 OFFCURVE",
"170 -110 CURVE"
);
},
{
closed = 1;
nodes = (
"267 -110 LINE",
"756 -56 LINE",
"765 -40 LINE",
"174 -40 LINE",
"164 -110 LINE"
);
}
);
width = 240;
}
);
leftKerningGroup = yeh;
},
{
glyphname = "alefMaksura-ar.fina.5";
layers = (
{
anchors = (
{
name = bottom;
position = "{129, -135}";
},
{
name = top;
position = "{57, 198}";
}
);
guideLines = (
{
position = "{-33, 155}";
},
{
position = "{-33, -110}";
},
{
position = "{-33, 70}";
},
{
position = "{-33, -110}";
},
{
angle = 90;
position = "{355, 132}";
}
);
layerId = "67aa4fb0-543e-4232-8202-ade6a11e0795";
paths = (
{
closed = 1;
nodes = (
"159 -40 LINE",
"127 -40 OFFCURVE",
"105 -37 OFFCURVE",
"82 -14 CURVE SMOOTH",
"51 17 LINE SMOOTH",
"34 34 OFFCURVE",
"43 81 OFFCURVE",
"57 67 CURVE SMOOTH",
"109 15 LINE SMOOTH",
"119 5 OFFCURVE",
"128 0 OFFCURVE",
"140 0 CURVE SMOOTH",
"207 0 LINE",
"207 70 LINE",
"176 70 LINE",
"167 70 OFFCURVE",
"162 75 OFFCURVE",
"158 79 CURVE SMOOTH",
"94 143 LINE SMOOTH",
"44 193 OFFCURVE",
"0 44 OFFCURVE",
"0 -5 CURVE SMOOTH",
"0 -92 OFFCURVE",
"60 -110 OFFCURVE",
"137 -110 CURVE"
);
},
{
closed = 1;
nodes = (
"176 -110 LINE SMOOTH",
"207 -110 OFFCURVE",
"308 -63 OFFCURVE",
"362 -40 CURVE",
"141 -40 LINE",
"131 -110 LINE"
);
}
);
width = 207;
},
{
anchors = (
{
name = bottom;
position = "{322, -135}";
},
{
name = top;
position = "{90, 198}";
}
);
associatedMasterId = "67aa4fb0-543e-4232-8202-ade6a11e0795";
guideLines = (
{
position = "{0, 155}";
},
{
position = "{0, -110}";
},
{
position = "{0, 70}";
},
{
position = "{0, -110}";
},
{
angle = 90;
position = "{388, 132}";
}
);
layerId = "93EC7BB6-EB3B-4966-8C50-56D3E1F433A2";
name = "Mar 9 20, 20:16";
paths = (
{
closed = 1;
nodes = (
"192 -40 LINE",
"160 -40 OFFCURVE",
"138 -37 OFFCURVE",
"115 -14 CURVE SMOOTH",
"84 17 LINE SMOOTH",
"67 34 OFFCURVE",
"76 81 OFFCURVE",
"90 67 CURVE SMOOTH",
"142 15 LINE SMOOTH",
"152 5 OFFCURVE",
"161 0 OFFCURVE",
"173 0 CURVE SMOOTH",
"240 0 LINE",
"240 70 LINE",
"209 70 LINE",
"200 70 OFFCURVE",
"195 75 OFFCURVE",
"191 79 CURVE SMOOTH",
"127 143 LINE SMOOTH",
"77 193 OFFCURVE",
"33 44 OFFCURVE",
"33 -5 CURVE SMOOTH",
"33 -92 OFFCURVE",
"93 -110 OFFCURVE",
"170 -110 CURVE"
);
},
{
closed = 1;
nodes = (
"232 -110 LINE",
"286 -87 OFFCURVE",
"341 -63 OFFCURVE",
"395 -40 CURVE",
"174 -40 LINE",
"164 -110 LINE"
);
}
);
visible = 1;
width = 240;
}
);
leftKerningGroup = yeh;
},
{
glyphname = "alefMaksura-ar.fina.6";
layers = (
{
anchors = (
{
name = bottom;
position = "{289, -135}";
},
{
name = top;
position = "{57, 198}";
}
);
guideLines = (
{
position = "{-33, 155}";
},
{
position = "{-33, -110}";
},
{
position = "{-33, 70}";
},
{
position = "{-33, -110}";
}
);
layerId = "67aa4fb0-543e-4232-8202-ade6a11e0795";
paths = (
{
closed = 1;
nodes = (
"159 -40 LINE",
"127 -40 OFFCURVE",
"105 -37 OFFCURVE",
"82 -14 CURVE SMOOTH",
"51 17 LINE SMOOTH",
"34 34 OFFCURVE",
"43 81 OFFCURVE",
"57 67 CURVE SMOOTH",
"109 15 LINE SMOOTH",
"119 5 OFFCURVE",
"128 0 OFFCURVE",
"140 0 CURVE SMOOTH",
"207 0 LINE",
"207 70 LINE",
"176 70 LINE",
"167 70 OFFCURVE",
"162 75 OFFCURVE",
"158 79 CURVE SMOOTH",
"94 143 LINE SMOOTH",
"44 193 OFFCURVE",
"0 44 OFFCURVE",
"0 -5 CURVE SMOOTH",
"0 -92 OFFCURVE",
"60 -110 OFFCURVE",
"137 -110 CURVE"
);
},
{
closed = 1;
nodes = (
"177 -110 LINE",
"302 -110 OFFCURVE",
"560 -74 OFFCURVE",
"723 -56 CURVE",
"732 -40 LINE",
"141 -40 LINE",
"131 -110 LINE"
);
}
);
width = 207;
},
{
anchors = (
{
name = bottom;
position = "{322, -135}";
},
{
name = top;
position = "{90, 198}";
}
);
associatedMasterId = "67aa4fb0-543e-4232-8202-ade6a11e0795";
guideLines = (
{
position = "{0, 155}";
},
{
position = "{0, -110}";
},
{
position = "{0, 70}";
},
{
position = "{0, -110}";
}
);
layerId = "E43493D8-6AC9-41F0-9706-E72D315EB2F6";
name = "Mar 9 20, 21:08";
paths = (
{
closed = 1;
nodes = (
"192 -40 LINE",
"160 -40 OFFCURVE",
"138 -37 OFFCURVE",
"115 -14 CURVE SMOOTH",
"84 17 LINE SMOOTH",
"67 34 OFFCURVE",
"76 81 OFFCURVE",
"90 67 CURVE SMOOTH",
"142 15 LINE SMOOTH",
"152 5 OFFCURVE",
"161 0 OFFCURVE",
"173 0 CURVE SMOOTH",
"240 0 LINE",
"240 70 LINE",
"209 70 LINE",
"200 70 OFFCURVE",
"195 75 OFFCURVE",
"191 79 CURVE SMOOTH",
"127 143 LINE SMOOTH",
"77 193 OFFCURVE",
"33 44 OFFCURVE",
"33 -5 CURVE SMOOTH",
"33 -92 OFFCURVE",
"93 -110 OFFCURVE",
"170 -110 CURVE"
);
},
{
closed = 1;
nodes = (
"267 -110 LINE",
"756 -56 LINE",
"765 -40 LINE",
"174 -40 LINE",
"164 -110 LINE"
);
}
);
visible = 1;
width = 240;
}
);
leftKerningGroup = yeh;
},
{
glyphname = "alefMaksura-ar.fina.tooth";
layers = (
{
anchors = (
{
name = bottom;
position = "{120, -250}";
},
{
name = entry;
position = "{0, 0}";
}
);
layerId = "67aa4fb0-543e-4232-8202-ade6a11e0795";
paths = (
{
closed = 1;
nodes = (
"259 -220 LINE SMOOTH",
"265 -220 OFFCURVE",
"280 -220 OFFCURVE",
"280 -199 CURVE",
"280 -60 OFFCURVE",
"210 -40 OFFCURVE",
"166 -40 CURVE SMOOTH",
"90 -40 LINE",
"90 -110 LINE",
"156 -110 LINE SMOOTH",
"178 -110 OFFCURVE",
"196 -128 OFFCURVE",
"196 -150 CURVE",
"0 -150 LINE",
"-40 -220 LINE"
);
},
{
closed = 1;
nodes = (
"80 50 LINE",
"0 50 LINE",
"0 -70 LINE",
"0 -95 OFFCURVE",
"15 -110 OFFCURVE",
"38 -110 CURVE",
"120 -110 LINE",
"120 -40 LINE",
"90 -40 LINE",
"83 -40 OFFCURVE",
"80 -37 OFFCURVE",
"80 -30 CURVE"
);
}
);
width = 280;
}
);
leftKerningGroup = yeh;
},
{
glyphname = "kashida-ar";
layers = (
{
layerId = "67aa4fb0-543e-4232-8202-ade6a11e0795";
paths = (
{
closed = 1;
nodes = (
"80 0 LINE",
"80 70 LINE",
"-19.763 70 LINE",
"-19.763 0 LINE"
);
}
);
width = 80;
}
);
unicode = 0640;
},
{
glyphname = "lam_alef-ar";
layers = (
{
associatedMasterId = "67aa4fb0-543e-4232-8202-ade6a11e0795";
layerId = "abf4b10a-26e5-432c-8593-bf37389dfdfd";
name = Regular.1;
paths = (
{
closed = 1;
nodes = (
"0 0 LINE",
"320 0 LINE",
"260 70 LINE",
"0 70 LINE"
);
},
{
closed = 1;
nodes = (
"2 0 LINE",
"230 520 LINE",
"302 560 LINE",
"56 0 LINE"
);
},
{
closed = 1;
nodes = (
"320 0 LINE",
"20.071 520 LINE",
"-50 480 LINE",
"227 0 LINE"
);
},
{
closed = 1;
nodes = (
"2 0 LINE",
"230 520 LINE",
"322 560 LINE",
"76 0 LINE"
);
},
{
closed = 1;
nodes = (
"76 0 LINE",
"304 520 LINE",
"371 560 LINE",
"125 0 LINE"
);
}
);
width = 360;
},
{
anchors = (
{
name = bottom_1;
position = "{270, 0}";
},
{
name = bottom_2;
position = "{60, 0}";
},
{
name = caret;
position = "{174, 0}";
},
{
name = top_1;
position = "{270, 560}";
},
{
name = top_2;
position = "{-10, 540}";
}
);
layerId = "67aa4fb0-543e-4232-8202-ade6a11e0795";
paths = (
{
closed = 1;
nodes = (
"320 0 LINE",
"20.071 520 LINE",
"-40.017 462.701 LINE",
"227 0 LINE"
);
},
{
closed = 1;
nodes = (
"320 0 LINE",
"260 70 LINE",
"70 70 LINE",
"0 0 LINE"
);
},
{
closed = 1;
nodes = (
"189.398 79.542 OFFCURVE",
"299.918 342.295 OFFCURVE",
"322 560 CURVE",
"230 520 LINE",
"222.518 315.326 OFFCURVE",
"161.473 181.973 OFFCURVE",
"0 0 CURVE"
);
}
);
width = 360;
}
);
},
{
glyphname = "lam_alef-ar.fina";
layers = (
{
components = (
{
alignment = -1;
name = "lam_alef-ar";
}
);
layerId = "67aa4fb0-543e-4232-8202-ade6a11e0795";
paths = (
{
closed = 1;
nodes = (
"360 0 LINE",
"360 70 LINE",
"260 70 LINE",
"260 0 LINE"
);
}
);
width = 360;
}
);
},
{
glyphname = "lam_alef-ar.1";
layers = (
{
associatedMasterId = "67aa4fb0-543e-4232-8202-ade6a11e0795";
layerId = "abf4b10a-26e5-432c-8593-bf37389dfdfd";
widthMetricsKey = "=4*80+40";
name = Regular.1;
paths = (
{
closed = 1;
nodes = (
"100 0 LINE",
"215 0 LINE",
"215 70 LINE",
"70 70 LINE"
);
},
{
closed = 1;
nodes = (
"80 560 LINE",
"0 540 LINE",
"0 0 LINE",
"135 0 LINE",
"135 70 LINE",
"80 70 LINE"
);
},
{
closed = 1;
nodes = (
"-212.842 460.029 LINE",
"-242.414 382.699 LINE",
"224.161 45.577 LINE",
"271.014 110.422 LINE"
);
}
);
width = 360;
},
{
anchors = (
{
name = bottom_1;
position = "{191, 0}";
},
{
name = bottom_2;
position = "{64, 0}";
},
{
name = caret;
position = "{0, 0}";
},
{
name = top_1;
position = "{40, 570}";
},
{
name = top_2;
position = "{-197, 500}";
}
);
guideLines = (
{
position = "{0, 150}";
showMeasurement = 1;
},
{
position = "{0, 110}";
},
{
angle = 90;
position = "{215, 0}";
},
{
angle = 90;
position = "{135, 0}";
},
{
position = "{0, 460}";
}
);
layerId = "67aa4fb0-543e-4232-8202-ade6a11e0795";
paths = (
{
closed = 1;
nodes = (
"215 0 LINE",
"215 100.334 LINE SMOOTH",
"215 129 OFFCURVE",
"201.818 160.419 OFFCURVE",
"172.44 181.646 CURVE SMOOTH",
"-212.842 460.029 LINE",
"-242.414 382.699 LINE",
"125.733 116.696 LINE SMOOTH",
"130.375 113.342 OFFCURVE",
"135 107.547 OFFCURVE",
"135 100.151 CURVE SMOOTH",
"135 0 LINE"
);
},
{
closed = 1;
nodes = (
"175 0 LINE",
"175 70 LINE",
"80 70 LINE",
"80 560 LINE",
"0 540 LINE",
"0 0 LINE"
);
}
);
width = 255;
}
);
},
{
glyphname = "lam_alef-ar.fina.1";
layers = (
{
components = (
{
alignment = -1;
name = "lam_alef-ar.1";
}
);
layerId = "67aa4fb0-543e-4232-8202-ade6a11e0795";
paths = (
{
closed = 1;
nodes = (
"255 0 LINE",
"255 70 LINE",
"155 70 LINE",
"155 0 LINE"
);
}
);
width = 255;
}
);
},
{
glyphname = "lam_alef-ar.fina.2";
layers = (
{
components = (
{
alignment = -1;
name = "lam_alef-ar.2";
}
);
layerId = "67aa4fb0-543e-4232-8202-ade6a11e0795";
paths = (
{
closed = 1;
nodes = (
"320 0 LINE",
"320 70 LINE",
"220 70 LINE",
"220 0 LINE"
);
}
);
width = 320;
}
);
widthMetricsKey = "=lam_alef-ar.2";
},
{
glyphname = "lam_alef-ar.fina.3";
layers = (
{
components = (
{
alignment = -1;
name = "lam_alef-ar.3";
}
);
layerId = "67aa4fb0-543e-4232-8202-ade6a11e0795";
paths = (
{
closed = 1;
nodes = (
"320 0 LINE",
"320 70 LINE",
"220 70 LINE",
"220 0 LINE"
);
}
);
width = 320;
}
);
widthMetricsKey = "=lam_alef-ar.3";
},
{
glyphname = "lam_alef-ar.fina.4";
layers = (
{
components = (
{
alignment = -1;
name = "lam_alef-ar.4";
}
);
layerId = "67aa4fb0-543e-4232-8202-ade6a11e0795";
paths = (
{
closed = 1;
nodes = (
"400 0 LINE",
"400 70 LINE",
"260 70 LINE",
"260 0 LINE"
);
}
);
width = 400;
}
);
widthMetricsKey = "=lam_alef-ar.4";
},
{
glyphname = "lam_alef-ar.fina.5";
layers = (
{
components = (
{
alignment = -1;
name = "lam_alef-ar.5";
}
);
layerId = "67aa4fb0-543e-4232-8202-ade6a11e0795";
paths = (
{
closed = 1;
nodes = (
"400 0 LINE",
"400 70 LINE",
"260 70 LINE",
"260 0 LINE"
);
}
);
width = 400;
}
);
widthMetricsKey = "=lam_alef-ar.5";
},
{
glyphname = "lam_alef-ar.2";
layers = (
{
anchors = (
{
name = bottom_1;
position = "{220, 0}";
},
{
name = bottom_2;
position = "{64, 0}";
},
{
name = caret;
position = "{140, 0}";
},
{
name = top_1;
position = "{201, 570}";
},
{
name = top_2;
position = "{80, 570}";
}
);
guideLines = (
{
position = "{-142, 210}";
},
{
position = "{-142, 60}";
}
);
layerId = "67aa4fb0-543e-4232-8202-ade6a11e0795";
paths = (
{
closed = 1;
nodes = (
"280 0 LINE",
"120 210 LINE",
"120 560 LINE",
"40 540 LINE",
"40 210 LINE",
"180 70 LINE",
"163 57 OFFCURVE",
"117 57 OFFCURVE",
"100 70 CURVE",
"240 210 LINE",
"240 560 LINE",
"160 540 LINE",
"160 210 LINE",
"0 0 LINE"
);
}
);
width = 320;
}
);
},
{
glyphname = "lam_alef-ar.3";
layers = (
{
anchors = (
{
name = bottom_1;
position = "{220, 0}";
},
{
name = bottom_2;
position = "{64, 0}";
},
{
name = caret;
position = "{140, 0}";
},
{
name = top_1;
position = "{201, 570}";
},
{
name = top_2;
position = "{80, 540}";
}
);
guideLines = (
{
position = "{-142, 210}";
},
{
position = "{-142, 60}";
}
);
layerId = "67aa4fb0-543e-4232-8202-ade6a11e0795";
paths = (
{
closed = 1;
nodes = (
"280 0 LINE",
"120 210 LINE",
"120 530 LINE",
"40 510 LINE",
"40 210 LINE",
"180 70 LINE",
"163 57 OFFCURVE",
"117 57 OFFCURVE",
"100 70 CURVE",
"240 210 LINE",
"240 560 LINE",
"160 540 LINE",
"160 210 LINE",
"0 0 LINE"
);
}
);
width = 320;
}
);
},
{
glyphname = "lam_alef-ar.4";
layers = (
{
anchors = (
{
name = bottom_1;
position = "{260, 0}";
},
{
name = bottom_2;
position = "{104, 0}";
},
{
name = caret;
position = "{180, 0}";
},
{
name = top_1;
position = "{241, 570}";
},
{
name = top_2;
position = "{120, 570}";
}
);
guideLines = (
{
position = "{-102, 210}";
},
{
position = "{-102, 60}";
}
);
layerId = "67aa4fb0-543e-4232-8202-ade6a11e0795";
paths = (
{
closed = 1;
nodes = (
"360 0 LINE",
"282 57 OFFCURVE",
"160 172 OFFCURVE",
"160 235 CURVE SMOOTH",
"160 560 LINE",
"80 540 LINE",
"80 235 LINE SMOOTH",
"80 217 OFFCURVE",
"96 194 OFFCURVE",
"109 181 CURVE SMOOTH",
"220 70 LINE",
"193 70 OFFCURVE",
"167 70 OFFCURVE",
"140 70 CURVE",
"251 181 LINE SMOOTH",
"264 194 OFFCURVE",
"280 212 OFFCURVE",
"280 235 CURVE SMOOTH",
"280 560 LINE",
"200 540 LINE",
"200 235 LINE SMOOTH",
"200 172 OFFCURVE",
"78 57 OFFCURVE",
"0 0 CURVE"
);
}
);
width = 400;
},
{
anchors = (
{
name = bottom_1;
position = "{260, 0}";
},
{
name = bottom_2;
position = "{104, 0}";
},
{
name = caret;
position = "{180, 0}";
},
{
name = top_1;
position = "{241, 570}";
},
{
name = top_2;
position = "{120, 570}";
}
);
associatedMasterId = "67aa4fb0-543e-4232-8202-ade6a11e0795";
guideLines = (
{
position = "{-102, 210}";
},
{
position = "{-102, 60}";
}
);
layerId = "C46413DF-93AE-4F9A-9C2C-42A8FE2320D2";
name = "Mar 10 20, 07:19";
paths = (
{
closed = 1;
nodes = (
"320 0 LINE",
"160 210 LINE",
"160 530 LINE",
"80 510 LINE",
"80 210 LINE",
"220 70 LINE",
"203 57 OFFCURVE",
"157 57 OFFCURVE",
"140 70 CURVE",
"280 210 LINE",
"280 560 LINE",
"200 540 LINE",
"200 210 LINE",
"40 0 LINE"
);
}
);
visible = 1;
width = 400;
}
);
},
{
glyphname = "lam_alef-ar.5";
layers = (
{
anchors = (
{
name = bottom_1;
position = "{260, 0}";
},
{
name = bottom_2;
position = "{104, 0}";
},
{
name = caret;
position = "{180, 0}";
},
{
name = top_1;
position = "{241, 570}";
},
{
name = top_2;
position = "{120, 540}";
}
);
guideLines = (
{
position = "{-102, 210}";
},
{
position = "{-102, 60}";
}
);
layerId = "67aa4fb0-543e-4232-8202-ade6a11e0795";
paths = (
{
closed = 1;
nodes = (
"360 0 LINE",
"282 57 OFFCURVE",
"160 172 OFFCURVE",
"160 235 CURVE SMOOTH",
"160 530 LINE",
"80 510 LINE",
"80 235 LINE SMOOTH",
"80 217 OFFCURVE",
"96 194 OFFCURVE",
"109 181 CURVE SMOOTH",
"220 70 LINE",
"193 70 OFFCURVE",
"167 70 OFFCURVE",
"140 70 CURVE",
"251 181 LINE SMOOTH",
"264 194 OFFCURVE",
"280 212 OFFCURVE",
"280 235 CURVE SMOOTH",
"280 560 LINE",
"200 540 LINE",
"200 235 LINE SMOOTH",
"200 172 OFFCURVE",
"78 57 OFFCURVE",
"0 0 CURVE"
);
}
);
width = 400;
}
);
},
{
glyphname = "zero-ar";
layers = (
{
guideLines = (
{
position = "{0, 70}";
},
{
position = "{0, 140}";
},
{
position = "{0, 210}";
},
{
position = "{0, 280}";
},
{
position = "{0, 350}";
}
);
layerId = "67aa4fb0-543e-4232-8202-ade6a11e0795";
paths = (
{
closed = 1;
nodes = (
"0 140 LINE",
"70 140 LINE",
"70 210 LINE",
"0 210 LINE"
);
}
);
width = 110;
}
);
unicode = 0660;
},
{
glyphname = "one-ar";
layers = (
{
guideLines = (
{
position = "{0, 70}";
},
{
position = "{0, 140}";
},
{
position = "{0, 210}";
},
{
position = "{0, 280}";
},
{
position = "{0, 350}";
}
);
layerId = "67aa4fb0-543e-4232-8202-ade6a11e0795";
paths = (
{
closed = 1;
nodes = (
"0 0 LINE",
"70 0 LINE",
"70 350 LINE",
"0 350 LINE"
);
}
);
width = 110;
}
);
widthMetricsKey = "=zero-ar";
unicode = 0661;
},
{
glyphname = "two-ar";
layers = (
{
guideLines = (
{
position = "{0, 70}";
},
{
position = "{0, 140}";
},
{
position = "{0, 210}";
},
{
position = "{0, 280}";
},
{
position = "{0, 350}";
},
{
angle = 90;
position = "{140, 450}";
},
{
angle = 90;
position = "{70, 450}";
},
{
angle = 90;
position = "{210, 450}";
}
);
layerId = "67aa4fb0-543e-4232-8202-ade6a11e0795";
paths = (
{
closed = 1;
nodes = (
"0 0 LINE",
"70 0 LINE",
"70 350 LINE",
"0 350 LINE"
);
},
{
closed = 1;
nodes = (
"60 189 LINE",
"210 189 LINE",
"210 259 LINE",
"60 259 LINE"
);
},
{
closed = 1;
nodes = (
"140 219 LINE",
"210 219 LINE",
"210 350 LINE",
"140 350 LINE"
);
}
);
width = 250;
}
);
unicode = 0662;
},
{
glyphname = "two-ar.1";
layers = (
{
guideLines = (
{
position = "{0, 70}";
},
{
position = "{0, 140}";
},
{
position = "{0, 210}";
},
{
position = "{0, 280}";
},
{
position = "{0, 350}";
},
{
angle = 90;
position = "{140, 450}";
},
{
angle = 90;
position = "{70, 450}";
},
{
angle = 90;
position = "{210, 450}";
}
);
layerId = "67aa4fb0-543e-4232-8202-ade6a11e0795";
paths = (
{
closed = 1;
nodes = (
"0 0 LINE",
"70 0 LINE",
"70 350 LINE",
"0 350 LINE"
);
},
{
closed = 1;
nodes = (
"60 280 LINE",
"210 280 LINE",
"210 350 LINE",
"60 350 LINE"
);
}
);
width = 250;
}
);
widthMetricsKey = "=two-ar";
},
{
glyphname = "three-ar";
layers = (
{
components = (
{
name = "three-ar.1";
}
);
guideLines = (
{
position = "{0, 70}";
},
{
position = "{0, 140}";
},
{
position = "{0, 210}";
},
{
position = "{0, 280}";
},
{
position = "{0, 350}";
}
);
layerId = "67aa4fb0-543e-4232-8202-ade6a11e0795";
paths = (
{
closed = 1;
nodes = (
"60 0 LINE",
"310 0 LINE",
"310 70 LINE",
"60 70 LINE"
);
}
);
width = 350;
}
);
widthMetricsKey = "=three-ar.1";
unicode = 0663;
},
{
glyphname = "three-ar.1";
layers = (
{
guideLines = (
{
position = "{0, 70}";
},
{
position = "{0, 140}";
},
{
position = "{0, 210}";
},
{
position = "{0, 280}";
},
{
position = "{0, 350}";
}
);
layerId = "67aa4fb0-543e-4232-8202-ade6a11e0795";
paths = (
{
closed = 1;
nodes = (
"0 0 LINE",
"70 0 LINE",
"70 350 LINE",
"0 350 LINE"
);
},
{
closed = 1;
nodes = (
"60 140 LINE",
"310 140 LINE",
"310 210 LINE",
"60 210 LINE"
);
},
{
closed = 1;
nodes = (
"120 170 LINE",
"190 170 LINE",
"190 350 LINE",
"120 350 LINE"
);
},
{
closed = 1;
nodes = (
"240 170 LINE",
"310 170 LINE",
"310 350 LINE",
"240 350 LINE"
);
}
);
width = 350;
}
);
},
{
glyphname = "four-ar";
layers = (
{
components = (
{
name = "four-ar.1";
}
);
guideLines = (
{
position = "{0, 70}";
},
{
position = "{0, 140}";
},
{
position = "{0, 210}";
},
{
position = "{0, 280}";
},
{
position = "{0, 350}";
}
);
layerId = "67aa4fb0-543e-4232-8202-ade6a11e0795";
paths = (
{
closed = 1;
nodes = (
"60 0 LINE",
"310 0 LINE",
"310 70 LINE",
"60 70 LINE"
);
}
);
width = 350;
}
);
widthMetricsKey = "=three-ar";
unicode = 0664;
},
{
glyphname = "four-ar.1";
layers = (
{
guideLines = (
{
position = "{0, 70}";
},
{
position = "{0, 140}";
},
{
position = "{0, 210}";
},
{
position = "{0, 280}";
},
{
position = "{0, 350}";
}
);
layerId = "67aa4fb0-543e-4232-8202-ade6a11e0795";
paths = (
{
closed = 1;
nodes = (
"0 0 LINE",
"70 0 LINE",
"70 350 LINE",
"0 350 LINE"
);
},
{
closed = 1;
nodes = (
"60 140 LINE",
"310 140 LINE",
"310 210 LINE",
"60 210 LINE"
);
},
{
closed = 1;
nodes = (
"120 190 LINE",
"190 190 LINE",
"190 350 LINE",
"120 350 LINE"
);
},
{
closed = 1;
nodes = (
"170 280 LINE",
"310 280 LINE",
"310 350 LINE",
"170 350 LINE"
);
}
);
width = 350;
}
);
widthMetricsKey = "=three-ar";
},
{
glyphname = "four-ar.2";
layers = (
{
guideLines = (
{
position = "{0, 70}";
},
{
position = "{0, 140}";
},
{
position = "{0, 210}";
},
{
position = "{0, 280}";
},
{
position = "{0, 350}";
},
{
angle = 90;
position = "{140, 450}";
},
{
angle = 90;
position = "{70, 450}";
},
{
angle = 90;
position = "{210, 450}";
}
);
layerId = "67aa4fb0-543e-4232-8202-ade6a11e0795";
paths = (
{
closed = 1;
nodes = (
"60 0 LINE",
"210 0 LINE",
"210 70 LINE",
"60 70 LINE"
);
},
{
closed = 1;
nodes = (
"0 0 LINE",
"70 0 LINE",
"70 350 LINE",
"0 350 LINE"
);
},
{
closed = 1;
nodes = (
"60 140 LINE",
"210 140 LINE",
"210 210 LINE",
"60 210 LINE"
);
},
{
closed = 1;
nodes = (
"50 280 LINE",
"210 280 LINE",
"210 350 LINE",
"50 350 LINE"
);
}
);
width = 250;
}
);
widthMetricsKey = "=two-ar";
},
{
glyphname = "five-ar";
layers = (
{
guideLines = (
{
position = "{0, 70}";
},
{
position = "{0, 140}";
},
{
position = "{0, 210}";
},
{
position = "{0, 280}";
},
{
position = "{0, 350}";
},
{
angle = 90;
position = "{140, 450}";
},
{
angle = 90;
position = "{70, 450}";
},
{
angle = 90;
position = "{210, 450}";
}
);
layerId = "67aa4fb0-543e-4232-8202-ade6a11e0795";
paths = (
{
closed = 1;
nodes = (
"0 0 LINE",
"70 0 LINE",
"70 350 LINE",
"0 350 LINE"
);
},
{
closed = 1;
nodes = (
"60 280 LINE",
"150 280 LINE",
"150 350 LINE",
"60 350 LINE"
);
},
{
closed = 1;
nodes = (
"60 0 LINE",
"150 0 LINE",
"150 70 LINE",
"60 70 LINE"
);
},
{
closed = 1;
nodes = (
"140 0 LINE",
"210 0 LINE",
"210 350 LINE",
"140 350 LINE"
);
}
);
width = 250;
}
);
widthMetricsKey = "=two-ar";
unicode = 0665;
},
{
glyphname = "seven-ar";
layers = (
{
guideLines = (
{
position = "{0, 70}";
},
{
position = "{0, 140}";
},
{
position = "{0, 210}";
},
{
position = "{0, 280}";
},
{
position = "{0, 350}";
},
{
angle = 90;
position = "{140, 450}";
},
{
angle = 90;
position = "{70, 450}";
},
{
angle = 90;
position = "{210, 450}";
}
);
layerId = "67aa4fb0-543e-4232-8202-ade6a11e0795";
paths = (
{
closed = 1;
nodes = (
"0 0 LINE",
"70 0 LINE",
"70 350 LINE",
"0 350 LINE"
);
},
{
closed = 1;
nodes = (
"60 0 LINE",
"150 0 LINE",
"150 70 LINE",
"60 70 LINE"
);
},
{
closed = 1;
nodes = (
"140 0 LINE",
"210 0 LINE",
"210 350 LINE",
"140 350 LINE"
);
}
);
width = 250;
}
);
widthMetricsKey = "=five-ar";
unicode = 0667;
},
{
glyphname = "seven-ar.1";
layers = (
{
guideLines = (
{
position = "{4, 350}";
}
);
layerId = "67aa4fb0-543e-4232-8202-ade6a11e0795";
paths = (
{
closed = 1;
nodes = (
"190 11 LINE",
"66 350 LINE",
"0 327 LINE",
"120 0 LINE",
"153 0 LINE",
"186 0 LINE",
"306 327 LINE",
"240 350 LINE",
"116 11 LINE",
"153 0 LINE"
);
}
);
width = 346;
}
);
},
{
glyphname = "nine-ar";
layers = (
{
guideLines = (
{
position = "{0, 70}";
},
{
position = "{0, 140}";
},
{
position = "{0, 210}";
},
{
position = "{0, 280}";
},
{
position = "{0, 350}";
},
{
angle = 90;
position = "{140, 450}";
},
{
angle = 90;
position = "{70, 450}";
},
{
angle = 90;
position = "{210, 450}";
}
);
layerId = "67aa4fb0-543e-4232-8202-ade6a11e0795";
paths = (
{
closed = 1;
nodes = (
"140 350 LINE",
"140 0 LINE",
"210 0 LINE",
"210 350 LINE"
);
},
{
closed = 1;
nodes = (
"0 210 LINE",
"0 140 LINE",
"150 140 LINE",
"150 210 LINE"
);
},
{
closed = 1;
nodes = (
"0 310 LINE",
"0 170 LINE",
"70 170 LINE",
"70 310 LINE"
);
},
{
closed = 1;
nodes = (
"0 350 LINE",
"0 280 LINE",
"150 280 LINE",
"150 350 LINE"
);
}
);
width = 250;
}
);
unicode = 0669;
},
{
glyphname = .notdef;
layers = (
{
layerId = "67aa4fb0-543e-4232-8202-ade6a11e0795";
paths = (
{
closed = 1;
nodes = (
"40 450 LINE",
"290 450 LINE",
"290 0 LINE",
"40 0 LINE"
);
},
{
closed = 1;
nodes = (
"80 410 LINE",
"80 40 LINE",
"250 40 LINE",
"250 410 LINE"
);
},
{
closed = 1;
nodes = (
"232 430 LINE",
"266 407.973 LINE",
"98 21 LINE",
"61.014 37.027 LINE"
);
},
{
closed = 1;
nodes = (
"95.014 430 LINE",
"266 37.027 LINE",
"229.014 21 LINE",
"61.014 407.973 LINE"
);
}
);
width = 330;
}
);
},
{
glyphname = "dotabove-ar";
layers = (
{
anchors = (
{
name = _top;
position = "{17, 0}";
}
);
layerId = "67aa4fb0-543e-4232-8202-ade6a11e0795";
paths = (
{
closed = 1;
nodes = (
"0 10 LINE",
"47 89 LINE",
"64 79 LINE",
"17 0 LINE"
);
}
);
width = 64;
},
{
anchors = (
{
name = _top;
position = "{40, -40}";
}
);
associatedMasterId = "67aa4fb0-543e-4232-8202-ade6a11e0795";
layerId = "EE17D735-ABCF-480D-8CC3-543DD761DBD5";
name = "Mar 9 20, 00:16";
paths = (
{
closed = 1;
nodes = (
"0 -25.213 LINE",
"65.612 40.399 LINE",
"79.754 26.257 LINE",
"14.142 -39.355 LINE"
);
}
);
visible = 1;
width = 80;
}
);
},
{
glyphname = "dotabove-ar.alt1";
layers = (
{
anchors = (
{
name = _top;
position = "{29, 0}";
}
);
layerId = "67aa4fb0-543e-4232-8202-ade6a11e0795";
paths = (
{
closed = 1;
nodes = (
"45 0 OFFCURVE",
"58 13 OFFCURVE",
"58 29 CURVE SMOOTH",
"58 45 OFFCURVE",
"45 58 OFFCURVE",
"29 58 CURVE SMOOTH",
"13 58 OFFCURVE",
"0 45 OFFCURVE",
"0 29 CURVE SMOOTH",
"0 13 OFFCURVE",
"13 0 OFFCURVE",
"29 0 CURVE SMOOTH"
);
}
);
width = 58;
},
{
anchors = (
{
name = _top;
position = "{40, -40}";
}
);
associatedMasterId = "67aa4fb0-543e-4232-8202-ade6a11e0795";
layerId = "EE17D735-ABCF-480D-8CC3-543DD761DBD5";
name = "Mar 9 20, 00:16";
paths = (
{
closed = 1;
nodes = (
"0 -25.213 LINE",
"65.612 40.399 LINE",
"79.754 26.257 LINE",
"14.142 -39.355 LINE"
);
}
);
width = 80;
}
);
},
{
export = 0;
glyphname = _elbow;
layers = (
{
layerId = "67aa4fb0-543e-4232-8202-ade6a11e0795";
paths = (
{
closed = 1;
nodes = (
"80 0 LINE",
"80 70 LINE",
"58 70 OFFCURVE",
"40 88 OFFCURVE",
"40 110 CURVE",
"0 110 LINE",
"0 0 LINE"
);
}
);
width = 80;
}
);
},
{
export = 0;
glyphname = _bowel;
layers = (
{
components = (
{
name = _bowelShort;
}
);
layerId = "67aa4fb0-543e-4232-8202-ade6a11e0795";
paths = (
{
closed = 1;
nodes = (
"230 40 LINE",
"230 210 LINE",
"150 190 LINE",
"150 40 LINE"
);
}
);
width = 230;
}
);
},
{
export = 0;
glyphname = _bowelShort;
layers = (
{
layerId = "67aa4fb0-543e-4232-8202-ade6a11e0795";
paths = (
{
closed = 1;
nodes = (
"192 -250 LINE SMOOTH",
"215 -250 OFFCURVE",
"230 -235 OFFCURVE",
"230 -210 CURVE SMOOTH",
"230 60 LINE",
"150 60 LINE",
"150 -180 LINE",
"50 -180 LINE",
"29.847 -180 OFFCURVE",
"13.184 -174.526 OFFCURVE",
"2 -160 CURVE",
"-50 -250 LINE"
);
}
);
width = 230;
}
);
},
{
export = 0;
glyphname = _vextender;
layers = (
{
layerId = "67aa4fb0-543e-4232-8202-ade6a11e0795";
paths = (
{
closed = 1;
nodes = (
"80 20 LINE",
"80 70 LINE",
"0 50 LINE",
"0 0 LINE"
);
}
);
width = 80;
}
);
},
{
export = 0;
glyphname = _dal;
layers = (
{
anchors = (
{
name = top;
position = "{280, 255}";
}
);
layerId = "67aa4fb0-543e-4232-8202-ade6a11e0795";
paths = (
{
closed = 1;
nodes = (
"539 0 LINE SMOOTH",
"545 0 OFFCURVE",
"560 0 OFFCURVE",
"560 21 CURVE",
"560 160 OFFCURVE",
"490 180 OFFCURVE",
"446 180 CURVE SMOOTH",
"120 180 LINE",
"120 110 LINE",
"436 110 LINE SMOOTH",
"458 110 OFFCURVE",
"476 92 OFFCURVE",
"476 70 CURVE",
"40.4 70 LINE",
"0 0 LINE"
);
}
);
width = 560;
}
);
},
{
export = 0;
glyphname = _sad;
layers = (
{
anchors = (
{
name = top;
position = "{297, 255}";
}
);
components = (
{
name = _dal;
transform = "{1, 0, 0, 1, 57, 0}";
}
);
layerId = "67aa4fb0-543e-4232-8202-ade6a11e0795";
paths = (
{
closed = 1;
nodes = (
"103 70 LINE",
"0 70 LINE",
"0 0 LINE",
"103 0 LINE"
);
},
{
closed = 1;
nodes = (
"193 180 LINE",
"0 180 LINE",
"0 110 LINE",
"193 110 LINE"
);
}
);
width = 617;
}
);
},
{
export = 0;
glyphname = _tail;
layers = (
{
anchors = (
{
name = _top;
position = "{97, 365}";
}
);
layerId = "67aa4fb0-543e-4232-8202-ade6a11e0795";
paths = (
{
closed = 1;
nodes = (
"350 0 LINE",
"350 70 LINE",
"100 70 LINE",
"77.559 70 OFFCURVE",
"62.149 76.818 OFFCURVE",
"52 90 CURVE",
"0 0 LINE"
);
}
);
width = 350;
}
);
},
{
export = 0;
glyphname = _tail2;
layers = (
{
anchors = (
{
name = _bottom;
position = "{170, -70}";
}
);
layerId = "67aa4fb0-543e-4232-8202-ade6a11e0795";
paths = (
{
closed = 1;
nodes = (
"495 -110 LINE",
"536 -40 LINE",
"100 -40 LINE SMOOTH",
"89 -40 OFFCURVE",
"80 -31 OFFCURVE",
"80 -20 CURVE SMOOTH",
"80 -9 OFFCURVE",
"89 0 OFFCURVE",
"100 0 CURVE SMOOTH",
"239.5 0 LINE",
"239.5 70 LINE",
"90 70 LINE SMOOTH",
"40 70 OFFCURVE",
"0 30 OFFCURVE",
"0 -20 CURVE SMOOTH",
"0 -70 OFFCURVE",
"40 -110 OFFCURVE",
"90 -110 CURVE SMOOTH"
);
}
);
width = 640;
}
);
},
{
export = 0;
glyphname = _tail3;
layers = (
{
layerId = "67aa4fb0-543e-4232-8202-ade6a11e0795";
paths = (
{
closed = 1;
nodes = (
"242 -250 OFFCURVE",
"288 -242 OFFCURVE",
"364 -207 CURVE SMOOTH",
"315 -215 OFFCURVE",
"280 -219 OFFCURVE",
"254 -219 CURVE SMOOTH",
"171 -219 OFFCURVE",
"80 -183 OFFCURVE",
"80 -93 CURVE SMOOTH",
"80 -26 OFFCURVE",
"130 0 OFFCURVE",
"170 0 CURVE",
"155 70 LINE",
"150 70 LINE",
"54 70 OFFCURVE",
"0 -8 OFFCURVE",
"0 -90 CURVE SMOOTH",
"0 -194 OFFCURVE",
"86 -250 OFFCURVE",
"199 -250 CURVE SMOOTH"
);
}
);
width = 304;
}
);
},
{
export = 0;
glyphname = _behShort;
layers = (
{
layerId = "67aa4fb0-543e-4232-8202-ade6a11e0795";
paths = (
{
closed = 1;
nodes = (
"59 0 LINE SMOOTH",
"65 0 OFFCURVE",
"80 0 OFFCURVE",
"80 11 CURVE SMOOTH",
"80 210 LINE",
"0 190 LINE",
"0 70 LINE",
"-20 70 LINE",
"-20 0 LINE"
);
}
